<svg width="588" height="162" viewBox="0 0 588 162" fill="none" xmlns="http://www.w3.org/2000/svg">
<path d="M110.453 20.8105C114.705 23.0511 117.394 26.3498 118.519 30.7065C116.018 44.6481 113.767 58.5274 111.766 72.3445C109.765 86.0371 107.827 97.5514 105.951 106.887C104.075 116.099 102.762 123.007 102.011 127.613C101.386 132.219 100.636 136.824 99.7604 141.43L98.6348 145.351C98.3847 146.72 98.1346 147.965 97.8845 149.085C97.6344 150.33 97.3842 151.637 97.1341 153.006C93.6324 156.99 88.8802 158.981 82.8773 158.981C76.4992 158.981 71.4343 157.363 67.6825 154.127C65.4314 152.384 65.0562 148.712 66.557 143.11C67.1823 140.87 67.5574 138.007 67.6825 134.521C67.9326 130.912 68.1827 127.924 68.4329 125.559V125.186C64.681 126.555 61.3044 128.36 58.303 130.6C55.3015 132.716 53.4256 134.086 52.6753 134.708C51.9249 135.206 50.9244 135.642 49.6738 136.015C48.4232 136.264 47.2977 136.451 46.2972 136.575C43.9211 136.7 42.2953 137.073 41.4199 137.696C34.1664 150.641 27.6633 157.861 21.9105 159.355C18.2838 160.475 14.657 160.724 11.0303 160.102C7.40355 159.604 4.52717 157.488 2.40115 153.753C-1.60077 150.019 -0.600288 139.812 5.40259 123.132C8.65415 114.294 13.2814 103.713 19.2843 91.3897C25.4122 78.9419 31.29 68.1123 36.9177 58.9009C49.0485 39.1088 62.3674 22.4287 76.8744 8.86059C79.2505 7.86476 81.8143 6.74446 84.5656 5.49968C87.3169 4.13042 90.0057 3.38355 92.632 3.25907C95.3833 3.13459 98.1971 3.44579 101.074 4.19266C103.95 4.93953 106.389 6.05983 108.39 7.55358C113.017 11.039 113.705 15.4579 110.453 20.8105ZM70.3087 69.9172C67.6825 77.3859 65.0562 84.2944 62.43 90.6428C59.8037 96.8667 57.5526 102.344 55.6767 107.074L70.4963 106.514C71.4968 98.5472 72.6224 90.6428 73.873 82.8007C75.1236 74.9586 76.3116 67.1164 77.4372 59.2743L70.3087 69.9172ZM65.2438 107.261C66.9947 107.261 68.7455 107.136 70.4963 106.887V106.701C68.8706 106.825 67.3698 106.949 65.9942 107.074C64.6185 107.198 64.3684 107.261 65.2438 107.261Z" fill="#2A2621"/>
<path d="M211.649 6.61999L212.399 6.8067C215.526 8.67388 218.215 10.79 220.466 13.1551C222.842 15.3957 224.968 17.823 226.844 20.4371C228.845 22.9266 230.408 25.6652 231.534 28.6526C236.286 40.1046 232.159 52.9259 219.153 67.1164C213.65 73.0914 207.46 78.195 200.581 82.4273C202.332 83.672 203.958 84.6056 205.459 85.228C207.084 85.7259 209.335 86.784 212.212 88.4022C215.088 89.896 216.964 92.8212 217.84 97.1779C218.715 101.41 218.465 106.203 217.089 111.555C215.839 116.908 213.462 122.447 209.961 128.173C206.584 133.775 202.144 138.816 196.642 143.297C184.136 153.629 169.629 157.986 153.121 156.367C150.745 156.367 149.244 156.181 148.619 155.807C147.993 155.434 147.493 155.123 147.118 154.874C146.743 154.625 145.93 154.438 144.679 154.313C141.553 156.803 137.989 158.359 133.987 158.981C129.985 159.604 126.171 159.293 122.544 158.048C119.042 156.803 116.041 154.687 113.539 151.699C111.163 148.712 109.975 144.791 109.975 139.936C110.35 136.7 110.976 134.148 111.851 132.281C111.476 131.161 111.288 129.791 111.288 128.173C115.54 105.642 119.542 88.4022 123.294 76.4523C130.923 52.6769 139.177 34.7521 148.056 22.6777C155.31 12.4705 165.377 5.87311 178.258 2.88563C190.639 0.0226322 201.769 1.26742 211.649 6.61999ZM153.309 136.949C154.809 136.575 156.06 136.513 157.06 136.762C158.186 136.887 159.499 136.824 161 136.575C164.626 136.202 169.504 133.961 175.632 129.853C179.509 125.995 181.572 122.198 181.822 118.464C182.072 114.729 181.51 112.364 180.134 111.368C178.758 110.248 176.882 109.688 174.506 109.688C172.255 109.688 169.691 110.061 166.815 110.808C164.064 111.431 161.375 111.804 158.749 111.929V112.302C158.123 114.792 157.498 116.97 156.873 118.837C156.247 120.704 155.685 122.509 155.184 124.252C154.059 128.36 153.183 132.592 152.558 136.949H153.309ZM188.2 39.8557C184.448 39.3578 180.384 42.283 176.007 48.6314C173.256 52.6147 171.13 58.6519 169.629 66.743C172.255 65.6227 174.819 64.6891 177.32 63.9422C179.946 63.0709 182.385 62.1373 184.636 61.1415C190.139 58.7764 194.078 55.9134 196.454 52.5525C199.206 49.316 200.081 46.5775 199.081 44.3369C197.58 42.3453 195.141 40.5403 191.765 38.9221C190.764 39.7935 189.576 40.1046 188.2 39.8557Z" fill="#2A2621"/>
<path d="M260.415 23.798C268.294 14.8355 277.048 9.23403 286.678 6.99342C293.306 5.3752 299.559 5.62416 305.437 7.74029C310.064 2.88563 316.067 1.14294 323.445 2.5122C330.199 3.75698 335.951 7.55357 340.704 13.902C340.954 14.7733 341.454 16.0803 342.204 17.823C343.08 19.5657 343.893 21.4951 344.643 23.6113C350.146 36.308 350.583 52.9881 345.956 73.6515C340.203 99.2941 330.011 121.016 315.379 138.816C310.877 144.293 305.812 148.836 300.184 152.446C291.18 159.293 280.425 162.342 267.919 161.595C260.165 161.222 253.662 159.293 248.409 155.807C227.524 145.476 220.709 123.941 227.962 91.203C233.965 64.3157 244.783 41.8473 260.415 23.798ZM262.666 122.945L262.479 124.065L262.854 126.119C263.604 129.978 264.855 132.965 266.606 135.082C268.356 137.073 269.795 138.318 270.92 138.816C272.171 137.82 273.421 136.887 274.672 136.015C275.923 135.144 277.048 134.086 278.049 132.841C286.553 122.385 293.181 108.692 297.933 91.7631C302.685 74.8341 304.436 59.1498 303.186 44.7103C298.308 50.9343 293.181 58.0918 287.803 66.1828C282.426 74.2739 278.174 81.1825 275.047 86.9085C267.919 100.228 263.792 112.24 262.666 122.945Z" fill="#2A2621"/>
<path d="M406.486 12.2215V12.5949C406.486 12.7194 406.486 12.7817 406.486 12.7817C406.611 12.7817 406.674 12.8439 406.674 12.9684V13.3418H406.861L407.987 16.3293C409.238 19.9392 405.986 31.1422 398.232 49.9384C389.978 69.9794 386.164 85.6015 386.789 96.8045C388.165 104.771 394.856 98.3605 406.861 77.5726C416.366 61.3904 425.558 43.6523 434.437 24.3581C435.563 21.7441 436.751 19.0678 438.001 16.3293C439.252 13.4663 440.815 11.1012 442.691 9.23403C446.818 4.75281 451.82 3.57027 457.698 5.68639C459.699 3.3213 462.013 1.70309 464.639 0.831745C467.39 -0.0396062 469.954 -0.226325 472.33 0.271589C474.832 0.769503 476.958 1.95205 478.708 3.81922C480.459 5.56191 481.397 7.92701 481.522 10.9145C481.897 13.4041 480.584 19.3168 477.583 28.6526C474.706 37.9885 472.018 46.5153 469.516 54.2329C467.015 61.9506 464.452 70.3529 461.825 79.4398C455.447 100.975 450.382 121.264 446.63 140.31C446.505 144.293 444.755 147.592 441.378 150.206C438.126 152.82 434.437 154.5 430.31 155.247C426.308 156.118 422.494 155.994 418.867 154.874C414.49 153.629 412.176 150.517 411.926 145.538C411.926 144.168 411.864 142.799 411.739 141.43C411.989 145.662 408.925 149.272 402.547 152.26C400.796 153.131 399.17 153.94 397.669 154.687C388.915 157.301 379.723 156.741 370.094 153.006C365.592 151.139 361.527 148.65 357.9 145.538C354.399 142.301 351.96 138.505 350.584 134.148C346.207 120.206 347.02 101.908 353.023 79.2531C355.524 69.5438 358.588 60.0834 362.215 50.872C365.842 41.6606 368.468 35.001 370.094 30.8933C371.845 26.7855 373.095 23.9847 373.846 22.491C374.596 20.8727 375.409 19.3168 376.284 17.823C378.41 13.5908 380.224 10.7278 381.724 9.23403L383.975 7.18013C384.226 6.93118 384.476 6.8067 384.726 6.8067C384.976 6.68223 385.289 6.49551 385.664 6.24655C386.664 5.62416 387.727 5.18848 388.853 4.93953L391.479 4.37938H392.605C396.231 3.88146 399.358 4.62833 401.984 6.61999C401.984 6.74447 402.109 6.8067 402.359 6.8067L403.86 8.11372L404.423 8.67388L404.986 9.42075C404.986 9.54522 404.986 9.60746 404.986 9.60746C405.111 9.60746 405.173 9.6697 405.173 9.79418L405.361 9.98089V10.3543C405.486 10.3543 405.548 10.4166 405.548 10.541V10.7278C405.673 10.8522 405.798 10.9145 405.923 10.9145V11.1012C405.923 11.2257 405.923 11.2879 405.923 11.2879C406.049 11.2879 406.111 11.3502 406.111 11.4746C406.111 11.4746 406.174 11.5369 406.299 11.6613V11.8481C406.299 11.9726 406.361 12.097 406.486 12.2215ZM411.551 136.015C411.426 136.14 411.364 136.638 411.364 137.509C411.364 137.135 411.426 136.887 411.551 136.762V136.015Z" fill="#2A2621"/>
<path d="M535.843 99.6053C532.466 109.315 529.027 118.65 525.525 127.613C522.024 136.575 519.085 143.359 516.709 147.965C514.457 152.695 512.457 155.932 510.706 157.674C508.955 159.417 507.141 160.6 505.266 161.222C503.515 161.844 501.701 162.093 499.825 161.969C498.075 161.844 496.261 161.72 494.385 161.595C483.88 159.977 480.629 152.446 484.631 139.003C487.257 128.298 489.383 119.584 491.009 112.862C492.635 106.016 493.948 100.414 494.948 96.0576C496.074 91.5764 497.012 87.9043 497.762 85.0413C498.512 82.0538 499.325 79.1286 500.201 76.2656C501.076 73.4026 502.139 70.1661 503.39 66.5563C504.765 62.9464 506.516 58.154 508.642 52.179C503.89 52.8014 499.638 52.3035 495.886 50.6853C490.383 48.3202 488.132 43.2166 489.133 35.3745C489.633 31.7646 491.571 28.4037 494.948 25.2917C496.699 23.6735 498.762 21.9308 501.139 20.0636C506.016 16.2048 515.708 12.097 530.215 7.74029C545.222 3.25907 558.103 1.14294 568.859 1.39189C571.735 0.893984 574.674 1.26742 577.675 2.5122C580.802 3.63251 583.303 5.18848 585.179 7.18013C587.055 9.17179 587.993 11.3502 587.993 13.7152C588.118 16.0803 586.617 18.1965 583.491 20.0636C581.99 21.0595 580.927 22.7399 580.302 25.105C579.676 27.3456 578.988 29.7729 578.238 32.387C577.488 34.8766 576.362 37.1794 574.861 39.2955C573.486 41.4117 571.235 42.6564 568.108 43.0299C566.482 43.9012 564.169 44.5236 561.167 44.8971C558.291 45.2705 556.353 45.5817 555.352 45.8306C554.477 45.9551 553.976 46.2663 553.851 46.7642C551.6 53.3616 548.912 61.3904 545.785 70.8508C542.659 80.1867 539.344 89.7715 535.843 99.6053ZM510.518 50.1251C510.268 50.1251 510.143 50.1874 510.143 50.3119C510.143 50.3119 510.268 50.3119 510.518 50.3119V50.1251Z" fill="#2A2621"/>
</svg>
