<svg width="1920" height="1080" viewBox="0 0 1920 1080" fill="none" xmlns="http://www.w3.org/2000/svg">
<rect width="1920" height="1080" fill="#FFEACB"/>
<path fill-rule="evenodd" clip-rule="evenodd" d="M1073.43 283.016C1193.86 263.198 1327.41 278.839 1419.87 344.399C1516.9 413.195 1559.62 520.599 1555.76 624.998C1552.01 726.463 1504.52 833.604 1399.71 889.269C1305.12 939.51 1183.91 900.854 1073.43 881.181C993.974 867.031 921.729 841.061 864.769 794.008C808.479 747.509 767.119 690.047 763.311 624.998C759.32 556.814 794.108 494.181 843.998 439.165C905.472 371.376 971.668 299.762 1073.43 283.016Z" fill="#F1DFC4"/>
<path fill-rule="evenodd" clip-rule="evenodd" d="M589.434 137.016C709.861 117.198 843.408 132.839 935.872 198.399C1032.9 267.195 1075.62 374.599 1071.76 478.998C1068.01 580.463 1020.52 687.604 915.712 743.269C821.121 793.51 699.911 754.854 589.434 735.181C509.974 721.031 437.729 695.061 380.769 648.008C324.479 601.509 283.119 544.047 279.311 478.998C275.32 410.814 310.108 348.181 359.998 293.165C421.472 225.376 487.668 153.762 589.434 137.016Z" fill="#D8C4A7"/>
</svg>
