<svg width="1920" height="1492" viewBox="0 0 1920 1492" fill="none" xmlns="http://www.w3.org/2000/svg">
<g clip-path="url(#clip0_35_1218)">
<g opacity="0.1">
<path d="M346.156 645.354C352.285 612.815 311.911 622.87 328.475 672.608C381.64 664.76 373.861 625.6 346.156 645.354Z" fill="black"/>
<path d="M77.6709 1124.87C56.0894 1099.76 38.7252 1137.58 87.9148 1155.7C114.989 1109.28 79.5512 1090.9 77.6709 1124.87Z" fill="black"/>
<path d="M906.864 770.61C882.822 747.845 869.424 787.238 920.21 800.232C942.389 751.277 905.25 736.623 906.864 770.61Z" fill="black"/>
<path d="M604.557 1030.58C592.17 999.876 563.594 1030.12 604.367 1063.07C644.903 1027.78 617.236 999.004 604.557 1030.58Z" fill="black"/>
<path d="M825.275 1033.67C827.208 1000.61 788.443 1015.73 811.21 1062.96C862.942 1048.39 850.239 1010.55 825.275 1033.67Z" fill="black"/>
<path d="M171.264 600.701C150.737 574.726 131.826 611.785 180.226 631.933C209.193 586.663 174.544 566.835 171.264 600.701Z" fill="black"/>
<path d="M209.637 1044.66C213.105 1011.73 173.679 1025.03 194.227 1073.27C246.581 1061.12 235.649 1022.73 209.637 1044.66Z" fill="black"/>
<path d="M432.636 1114.44C433.373 1081.34 395.182 1097.85 419.637 1144.22C470.812 1127.8 456.747 1090.44 432.636 1114.44Z" fill="black"/>
<path d="M244.338 864.224C235.312 832.371 203.658 859.375 240.667 896.509C284.754 865.773 260.328 834.193 244.338 864.224Z" fill="black"/>
<path d="M195.011 392.897C164.415 380.246 166.003 421.825 218.079 415.78C221.264 362.129 181.343 361.74 195.011 392.897Z" fill="black"/>
<path d="M-26.2038 363.032C-41.1958 333.511 -67.0535 366.111 -23.585 395.414C13.752 356.76 -16.2992 330.479 -26.2038 363.032Z" fill="black"/>
<path d="M752.203 581.472C756.362 548.626 716.665 561.097 736.196 609.746C788.795 598.703 778.67 560.091 752.203 581.472Z" fill="black"/>
<path d="M361.732 409.823C343.513 382.179 321.492 417.486 367.985 441.704C400.729 399.091 367.907 376.361 361.732 409.823Z" fill="black"/>
<path d="M783.31 390.44C772.847 359.027 742.454 387.45 781.113 422.854C823.754 390.144 797.918 359.709 783.31 390.44Z" fill="black"/>
<path d="M143.316 750.577C113.222 736.774 113.233 778.383 165.5 774.315C170.714 720.825 130.838 718.922 143.316 750.577Z" fill="black"/>
<path d="M564.188 593.465C552.13 562.631 523.23 592.57 563.655 625.953C604.562 591.1 577.201 562.029 564.188 593.465Z" fill="black"/>
<path d="M661.619 851.226C648.726 820.731 620.651 851.443 661.966 883.714C701.914 847.762 673.774 819.446 661.619 851.226Z" fill="black"/>
<path d="M16.4291 912.373C-0.471502 883.904 -24.1294 918.131 21.1716 944.514C55.8866 903.486 24.172 879.24 16.4291 912.373Z" fill="black"/>
<path d="M560.563 443.618C555.797 410.857 520.87 433.471 552.686 475.143C600.422 450.456 580.358 415.942 560.563 443.618Z" fill="black"/>
<path d="M415.738 821.355C420.16 788.545 380.366 800.697 399.507 849.5C452.19 838.884 442.375 800.186 415.738 821.355Z" fill="black"/>
<path d="M677.739 475.226C670.419 475.759 669.042 482.703 662.714 489.254C653.429 498.869 655.654 506.722 661.685 508.094C667.717 509.466 672.473 502.513 678.94 502.341C678.959 502.341 678.982 502.341 679 502.341C679.019 502.336 679.042 502.336 679.061 502.336C685.518 501.91 690.896 508.386 696.774 506.462C702.653 504.539 704.141 496.509 694.002 487.798C687.095 481.864 685.078 475.082 677.739 475.226Z" fill="black"/>
<path d="M659.799 470.618C664.11 476 664.792 482.62 661.319 485.401C657.847 488.183 651.538 486.069 647.222 480.687C642.91 475.3 642.229 468.68 645.701 465.898C649.173 463.117 655.483 465.231 659.799 470.618Z" fill="black"/>
<path d="M695.178 468.972C691.381 474.734 691.316 481.387 695.03 483.834C698.748 486.282 704.835 483.593 708.632 477.831C712.424 472.068 712.489 465.416 708.775 462.968C705.062 460.52 698.97 463.209 695.178 468.972Z" fill="black"/>
<path d="M674.933 455.857C676.542 462.955 674.136 469.547 669.56 470.585C664.984 471.619 659.973 466.705 658.364 459.612C656.76 452.515 659.166 445.918 663.742 444.884C668.318 443.845 673.329 448.759 674.933 455.857Z" fill="black"/>
<path d="M678.735 455.68C677.794 462.898 680.798 469.235 685.452 469.843C690.102 470.45 694.636 465.096 695.577 457.877C696.523 450.664 693.514 444.322 688.86 443.715C684.21 443.107 679.676 448.467 678.735 455.68Z" fill="black"/>
<path d="M11.0261 737.059C3.75419 738.062 2.82654 745.076 -3.06893 752.022C-11.719 762.212 -8.99361 769.909 -2.88628 770.889C3.22105 771.87 7.52085 764.628 13.9643 764.039C13.9842 764.037 14.0042 764.036 14.0241 764.034C14.044 764.031 14.064 764.029 14.0839 764.026C20.499 763.185 26.2842 769.306 32.0271 767.009C37.7706 764.712 38.739 756.603 28.0625 748.561C20.7851 743.08 18.3406 736.44 11.0261 737.059Z" fill="black"/>
<path d="M28.0252 729.697C24.6081 735.691 24.9701 742.337 28.8346 744.54C32.6991 746.743 38.6024 743.669 42.0196 737.675C45.4371 731.681 45.0746 725.035 41.2106 722.832C37.3461 720.629 31.4428 723.703 28.0252 729.697Z" fill="black"/>
<path d="M6.98565 717.91C9.04491 724.889 7.06722 731.623 2.56762 732.951C-1.93152 734.278 -7.24842 729.697 -9.30815 722.718C-11.3674 715.738 -9.38929 709.004 -4.89015 707.676C-0.390549 706.349 4.92638 710.93 6.98565 717.91Z" fill="black"/>
<path d="M10.7652 717.49C10.2886 724.752 13.6969 730.887 18.3782 731.194C23.0591 731.501 27.2402 725.864 27.7168 718.603C28.1933 711.342 24.785 705.206 20.1037 704.899C15.4229 704.592 11.2417 710.229 10.7652 717.49Z" fill="black"/>
<path d="M474.107 385.994C468.655 390.908 471.831 397.232 470.857 406.29C469.425 419.581 476.008 424.416 481.608 421.793C487.213 419.173 486.698 410.768 491.7 406.661C491.714 406.647 491.728 406.633 491.747 406.624C491.76 406.61 491.774 406.596 491.788 406.582C496.623 402.28 504.848 404.093 508.311 398.965C511.769 393.838 508.014 386.588 494.663 385.934C485.567 385.489 479.814 381.372 474.107 385.994Z" fill="black"/>
<path d="M457.11 393.365C463.823 394.969 468.426 399.776 467.392 404.102C466.359 408.432 460.077 410.638 453.369 409.034C446.656 407.43 442.053 402.623 443.086 398.293C444.12 393.968 450.402 391.761 457.11 393.365Z" fill="black"/>
<path d="M484.037 370.348C484.575 377.228 488.608 382.522 493.045 382.174C497.481 381.827 500.634 375.967 500.096 369.087C499.554 362.207 495.52 356.913 491.084 357.261C486.652 357.613 483.495 363.473 484.037 370.348Z" fill="black"/>
<path d="M460.006 372.42C465.634 377.038 467.78 383.723 464.804 387.348C461.828 390.973 454.855 390.171 449.232 385.554C443.604 380.936 441.458 374.256 444.434 370.631C447.41 367.001 454.383 367.808 460.006 372.42Z" fill="black"/>
<path d="M462.897 369.95C466.582 376.227 472.85 379.388 476.893 377.01C480.94 374.637 481.227 367.623 477.542 361.345C473.856 355.073 467.593 351.911 463.546 354.29C459.503 356.663 459.211 363.677 462.897 369.95Z" fill="black"/>
<path d="M262.381 732.924C255.066 732.279 252.599 738.91 245.302 744.366C234.598 752.37 235.539 760.481 241.274 762.799C247.008 765.117 252.812 759.017 259.224 759.88C259.247 759.883 259.266 759.885 259.284 759.888C259.307 759.89 259.326 759.892 259.344 759.894C265.788 760.505 270.063 767.762 276.173 766.804C282.283 765.845 285.037 758.158 276.423 747.936C270.549 740.969 269.65 733.953 262.381 732.924Z" fill="black"/>
<path d="M245.405 725.501C248.803 731.507 248.418 738.151 244.543 740.341C240.672 742.53 234.78 739.436 231.381 733.429C227.988 727.423 228.373 720.779 232.244 718.589C236.119 716.4 242.012 719.495 245.405 725.501Z" fill="black"/>
<path d="M280.596 729.538C275.928 734.619 274.797 741.178 278.074 744.187C281.347 747.197 287.791 745.517 292.459 740.436C297.128 735.355 298.254 728.797 294.981 725.787C291.704 722.777 285.264 724.456 280.596 729.538Z" fill="black"/>
<path d="M262.71 713.354C263.164 720.618 259.734 726.741 255.051 727.031C250.369 727.322 246.206 721.669 245.756 714.407C245.307 707.144 248.737 701.021 253.415 700.73C258.102 700.439 262.26 706.092 262.71 713.354Z" fill="black"/>
<path d="M266.488 713.789C264.406 720.76 266.358 727.502 270.855 728.845C275.347 730.189 280.683 725.626 282.764 718.654C284.85 711.682 282.894 704.941 278.402 703.597C273.905 702.254 268.574 706.817 266.488 713.789Z" fill="black"/>
<path d="M886.193 362.379C879.271 364.823 879.772 371.883 875.391 379.871C868.966 391.59 873.184 398.581 879.364 398.317C885.544 398.048 888.302 390.093 894.495 388.22C894.514 388.215 894.533 388.206 894.551 388.201C894.57 388.197 894.588 388.188 894.607 388.183C900.726 386.069 907.62 390.904 912.784 387.497C917.948 384.094 917.267 375.958 905.195 370.223C896.962 366.315 893.235 360.303 886.193 362.379Z" fill="black"/>
<path d="M867.667 362.657C873.248 366.718 875.649 372.925 873.035 376.523C870.416 380.12 863.772 379.745 858.191 375.684C852.614 371.627 850.208 365.42 852.827 361.822C855.442 358.225 862.09 358.6 867.667 362.657Z" fill="black"/>
<path d="M901.365 351.749C899.224 358.309 900.916 364.748 905.144 366.13C909.372 367.511 914.536 363.311 916.678 356.751C918.824 350.196 917.132 343.757 912.904 342.375C908.676 340.994 903.512 345.194 901.365 351.749Z" fill="black"/>
<path d="M878.386 344.434C881.807 350.855 881.223 357.851 877.083 360.057C872.938 362.259 866.81 358.843 863.388 352.417C859.972 345.997 860.556 339.001 864.696 336.794C868.836 334.592 874.964 338.009 878.386 344.434Z" fill="black"/>
<path d="M882.002 343.261C882.994 350.47 887.57 355.797 892.215 355.157C896.865 354.517 899.827 348.157 898.835 340.948C897.838 333.739 893.267 328.412 888.622 329.052C883.972 329.692 881.01 336.052 882.002 343.261Z" fill="black"/>
<path d="M51.2719 565.792C44.7274 562.469 39.964 567.698 31.1591 570.039C18.2412 573.474 16.0887 581.351 20.5452 585.643C25.0021 589.932 32.6653 586.436 38.2928 589.63C38.3104 589.64 38.3276 589.649 38.3452 589.658C38.3633 589.667 38.3809 589.677 38.3985 589.686C44.147 592.653 45.4066 600.984 51.4342 602.374C57.4613 603.76 62.8825 597.655 58.7019 584.957C55.8522 576.307 57.6319 569.459 51.2719 565.792Z" fill="black"/>
<path d="M38.2906 552.576C39.2016 559.414 36.3653 565.436 31.9561 566.024C27.5469 566.609 23.2337 561.542 22.3227 554.704C21.4113 547.861 24.2471 541.844 28.6568 541.255C33.066 540.666 37.3792 545.738 38.2906 552.576Z" fill="black"/>
<path d="M69.4339 569.446C63.2075 572.417 59.7139 578.082 61.6308 582.097C63.5477 586.112 70.1493 586.955 76.3762 583.979C82.6027 581.008 86.0963 575.343 84.1793 571.328C82.2624 567.313 75.6604 566.469 69.4339 569.446Z" fill="black"/>
<path d="M58.8769 547.758C56.5867 554.666 51.1205 559.07 46.6678 557.591C42.215 556.117 40.4617 549.321 42.7518 542.413C45.0424 535.506 50.5086 531.102 54.9614 532.58C59.4142 534.055 61.167 540.851 58.8769 547.758Z" fill="black"/>
<path d="M62.2202 549.572C57.6863 555.265 56.9854 562.246 60.6547 565.172C64.324 568.092 70.9742 565.848 75.5081 560.156C80.042 554.463 80.743 547.481 77.0737 544.556C73.4043 541.635 66.7542 543.879 62.2202 549.572Z" fill="black"/>
<path d="M549.293 1119.49C542.07 1120.79 541.435 1127.84 535.83 1135.02C527.611 1145.56 530.652 1153.14 536.794 1153.87C542.937 1154.59 546.933 1147.18 553.349 1146.32C553.367 1146.32 553.386 1146.32 553.405 1146.31C553.428 1146.31 553.446 1146.31 553.465 1146.3C559.839 1145.2 565.875 1151.08 571.517 1148.54C577.159 1146.01 577.794 1137.87 566.793 1130.27C559.297 1125.1 556.576 1118.57 549.293 1119.49Z" fill="black"/>
<path d="M530.968 1116.79C535.821 1121.69 537.198 1128.21 534.041 1131.34C530.88 1134.47 524.38 1133.04 519.526 1128.13C514.668 1123.23 513.291 1116.72 516.448 1113.59C519.61 1110.46 526.109 1111.89 530.968 1116.79Z" fill="black"/>
<path d="M565.975 1111.43C562.809 1117.56 563.444 1124.18 567.398 1126.22C571.348 1128.27 577.12 1124.95 580.286 1118.82C583.453 1112.69 582.817 1106.07 578.863 1104.02C574.909 1101.98 569.141 1105.3 565.975 1111.43Z" fill="black"/>
<path d="M544.463 1100.52C546.813 1107.41 545.112 1114.22 540.67 1115.73C536.234 1117.25 530.731 1112.89 528.385 1106C526.035 1099.11 527.736 1092.3 532.173 1090.79C536.614 1089.27 542.117 1093.63 544.463 1100.52Z" fill="black"/>
<path d="M548.221 1099.95C548.045 1107.22 551.707 1113.21 556.394 1113.32C561.086 1113.44 565.031 1107.63 565.202 1100.35C565.378 1093.08 561.721 1087.09 557.029 1086.98C552.342 1086.86 548.397 1092.67 548.221 1099.95Z" fill="black"/>
<path d="M678.095 976.719C672.838 971.592 666.733 975.166 657.628 974.777C644.276 974.202 639.872 981.081 642.849 986.501C645.82 991.925 654.179 990.872 658.597 995.601C658.611 995.615 658.625 995.629 658.639 995.643C658.652 995.657 658.666 995.671 658.68 995.685C663.284 1000.23 662.004 1008.56 667.345 1011.68C672.681 1014.8 679.676 1010.59 679.472 997.228C679.333 988.119 683.07 982.111 678.095 976.719Z" fill="black"/>
<path d="M669.645 960.228C668.472 967.029 663.971 971.934 659.59 971.178C655.205 970.422 652.599 964.298 653.767 957.498C654.936 950.701 659.437 945.797 663.823 946.552C668.208 947.303 670.814 953.427 669.645 960.228Z" fill="black"/>
<path d="M694.341 985.619C687.512 986.597 682.491 990.964 683.122 995.368C683.757 999.772 689.807 1002.54 696.635 1001.56C703.464 1000.58 708.489 996.212 707.854 991.813C707.224 987.408 701.174 984.636 694.341 985.619Z" fill="black"/>
<path d="M690.729 961.772C686.483 967.683 679.955 970.256 676.144 967.516C672.334 964.781 672.686 957.771 676.933 951.861C681.179 945.95 687.706 943.377 691.517 946.112C695.328 948.852 694.975 955.861 690.729 961.772Z" fill="black"/>
<path d="M693.38 964.498C687.354 968.578 684.605 975.036 687.238 978.92C689.866 982.801 696.885 982.643 702.907 978.559C708.934 974.479 711.683 968.021 709.054 964.141C706.421 960.256 699.407 960.414 693.38 964.498Z" fill="black"/>
<path d="M87.1567 382.527C79.8719 381.623 77.1715 388.164 69.6873 393.361C58.7067 400.983 59.3603 409.119 65.0101 411.64C70.6594 414.158 76.6778 408.266 83.0558 409.355C83.0753 409.36 83.0952 409.36 83.1151 409.364C83.1346 409.364 83.1546 409.369 83.1745 409.374C89.5901 410.208 93.6062 417.611 99.7469 416.87C105.888 416.128 108.91 408.544 100.661 398.025C95.0391 390.853 94.3846 383.811 87.1567 382.527Z" fill="black"/>
<path d="M70.4559 374.511C73.6385 380.631 73.0191 387.26 69.0716 389.309C65.1246 391.363 59.3455 388.062 56.163 381.938C52.9805 375.819 53.6003 369.189 57.5473 367.14C61.4943 365.086 67.2734 368.387 70.4559 374.511Z" fill="black"/>
<path d="M105.481 379.783C100.636 384.697 99.2766 391.215 102.444 394.335C105.612 397.459 112.107 396.008 116.951 391.094C121.796 386.18 123.156 379.667 119.988 376.542C116.82 373.418 110.325 374.869 105.481 379.783Z" fill="black"/>
<path d="M88.1791 362.981C88.3734 370.255 84.73 376.254 80.0403 376.379C75.3507 376.504 71.3916 370.709 71.1969 363.435C71.0022 356.162 74.646 350.163 79.3357 350.038C84.0249 349.913 87.9844 355.707 88.1791 362.981Z" fill="black"/>
<path d="M91.9378 363.547C89.6092 370.441 91.325 377.246 95.7694 378.748C100.214 380.25 105.704 375.879 108.033 368.981C110.361 362.087 108.646 355.281 104.202 353.779C99.7572 352.282 94.2664 356.654 91.9378 363.547Z" fill="black"/>
<path d="M247.161 470.641C241.121 474.818 243.453 481.494 241.325 490.353C238.195 503.348 244.097 508.989 249.989 507.112C255.886 505.234 256.456 496.834 261.945 493.404C261.959 493.394 261.978 493.38 261.996 493.371C262.01 493.362 262.029 493.348 262.047 493.339C267.392 489.695 275.315 492.551 279.409 487.91C283.497 483.274 280.707 475.597 267.555 473.233C258.584 471.62 253.411 466.794 247.161 470.641Z" fill="black"/>
<path d="M229.353 475.768C235.802 478.221 239.752 483.58 238.166 487.738C236.585 491.897 230.077 493.278 223.623 490.821C217.175 488.369 213.23 483.01 214.815 478.851C216.396 474.693 222.905 473.316 229.353 475.768Z" fill="black"/>
<path d="M259.013 456.409C258.666 463.298 261.985 469.069 266.426 469.292C270.872 469.519 274.752 464.114 275.104 457.22C275.452 450.331 272.133 444.559 267.692 444.337C263.246 444.11 259.366 449.515 259.013 456.409Z" fill="black"/>
<path d="M234.922 455.37C239.906 460.674 241.176 467.576 237.755 470.789C234.338 474.002 227.528 472.31 222.544 467.006C217.561 461.703 216.29 454.8 219.707 451.587C223.124 448.375 229.939 450.067 234.922 455.37Z" fill="black"/>
<path d="M238.102 453.294C240.953 459.989 246.762 463.929 251.078 462.093C255.394 460.258 256.586 453.341 253.739 446.647C250.893 439.948 245.084 436.007 240.763 437.843C236.447 439.679 235.256 446.596 238.102 453.294Z" fill="black"/>
<path d="M799.389 1126.64C792.815 1129.91 794.173 1136.86 790.799 1145.32C785.847 1157.74 790.887 1164.16 796.987 1163.14C803.088 1162.13 804.855 1153.89 810.775 1151.28C810.793 1151.27 810.812 1151.26 810.83 1151.26C810.849 1151.25 810.867 1151.24 810.886 1151.23C816.695 1148.39 824.131 1152.34 828.841 1148.34C833.555 1144.33 831.887 1136.34 819.203 1132.11C810.561 1129.24 806.125 1123.73 799.389 1126.64Z" fill="black"/>
<path d="M781.034 1129.17C787.07 1132.53 790.209 1138.39 788.048 1142.28C785.888 1146.17 779.249 1146.61 773.218 1143.26C767.182 1139.91 764.044 1134.04 766.204 1130.15C768.364 1126.26 775.003 1125.83 781.034 1129.17Z" fill="black"/>
<path d="M813.158 1114.25C811.827 1121.02 814.289 1127.2 818.656 1128.06C823.018 1128.91 827.636 1124.12 828.966 1117.35C830.292 1110.57 827.831 1104.4 823.468 1103.54C819.101 1102.68 814.484 1107.47 813.158 1114.25Z" fill="black"/>
<path d="M789.453 1109.78C793.629 1115.74 793.903 1122.75 790.06 1125.45C786.217 1128.14 779.717 1125.49 775.545 1119.53C771.368 1113.58 771.094 1106.56 774.938 1103.87C778.776 1101.17 785.276 1103.82 789.453 1109.78Z" fill="black"/>
<path d="M792.904 1108.18C794.768 1115.21 799.956 1119.94 804.49 1118.74C809.023 1117.54 811.188 1110.86 809.325 1103.83C807.466 1096.8 802.278 1092.06 797.744 1093.26C793.21 1094.47 791.041 1101.15 792.904 1108.18Z" fill="black"/>
<path d="M490.047 899.947C483.636 896.368 478.671 901.408 469.784 903.401C456.739 906.322 454.277 914.11 458.56 918.57C462.849 923.029 470.642 919.84 476.14 923.252C476.158 923.261 476.172 923.275 476.191 923.284C476.209 923.294 476.228 923.303 476.242 923.312C481.87 926.506 482.802 934.879 488.768 936.506C494.734 938.128 500.395 932.241 496.718 919.39C494.21 910.633 496.26 903.86 490.047 899.947Z" fill="black"/>
<path d="M477.599 886.23C478.239 893.101 475.17 899.002 470.743 899.42C466.311 899.832 462.203 894.598 461.559 887.728C460.919 880.857 463.988 874.951 468.42 874.539C472.847 874.126 476.959 879.36 477.599 886.23Z" fill="black"/>
<path d="M508.054 904.31C501.712 907.036 497.999 912.562 499.756 916.647C501.513 920.735 508.078 921.834 514.42 919.108C520.757 916.382 524.47 910.861 522.713 906.777C520.956 902.688 514.392 901.585 508.054 904.31Z" fill="black"/>
<path d="M498.356 882.23C495.797 889.041 490.16 893.222 485.769 891.572C481.379 889.921 479.896 883.065 482.455 876.25C485.014 869.44 490.651 865.258 495.041 866.909C499.431 868.559 500.92 875.416 498.356 882.23Z" fill="black"/>
<path d="M501.631 884.168C496.874 889.68 495.901 896.629 499.452 899.694C503.003 902.758 509.734 900.779 514.491 895.271C519.243 889.759 520.221 882.81 516.665 879.746C513.114 876.681 506.383 878.661 501.631 884.168Z" fill="black"/>
<path d="M307.451 938.445C300.279 936.878 296.992 943.146 289.065 947.633C277.433 954.221 277.341 962.385 282.737 965.407C288.133 968.435 294.665 963.117 300.914 964.782C300.933 964.791 300.951 964.795 300.974 964.8C300.993 964.805 301.012 964.809 301.03 964.814C307.344 966.233 310.664 973.975 316.848 973.794C323.032 973.618 326.736 966.339 319.481 955.111C314.539 947.457 314.53 940.383 307.451 938.445Z" fill="black"/>
<path d="M291.555 928.932C294.165 935.32 292.942 941.861 288.82 943.544C284.704 945.227 279.252 941.411 276.642 935.023C274.032 928.635 275.256 922.094 279.372 920.411C283.494 918.728 288.945 922.543 291.555 928.932Z" fill="black"/>
<path d="M325.948 937.388C320.677 941.839 318.725 948.204 321.595 951.602C324.465 955 331.062 954.152 336.337 949.701C341.608 945.251 343.56 938.886 340.69 935.487C337.821 932.089 331.224 932.938 325.948 937.388Z" fill="black"/>
<path d="M310.254 919.072C309.781 926.336 305.604 931.973 300.927 931.672C296.245 931.366 292.833 925.233 293.301 917.973C293.774 910.713 297.951 905.071 302.633 905.377C307.315 905.679 310.727 911.812 310.254 919.072Z" fill="black"/>
<path d="M313.951 919.98C310.998 926.633 312.087 933.568 316.375 935.469C320.663 937.37 326.528 933.517 329.481 926.865C332.429 920.212 331.345 913.281 327.052 911.381C322.763 909.475 316.899 913.328 313.951 919.98Z" fill="black"/>
<path d="M729.221 780.116C724.159 785.433 727.802 791.496 727.52 800.602C727.107 813.962 734.038 818.283 739.425 815.246C744.812 812.205 743.662 803.861 748.33 799.385C748.349 799.372 748.363 799.358 748.377 799.344C748.39 799.329 748.404 799.315 748.418 799.3C752.91 794.645 761.25 795.826 764.31 790.45C767.37 785.074 763.072 778.13 749.712 778.494C740.602 778.743 734.552 775.075 729.221 780.116Z" fill="black"/>
<path d="M712.832 788.762C719.647 789.85 724.603 794.294 723.898 798.686C723.198 803.079 717.107 805.757 710.292 804.669C703.477 803.581 698.526 799.137 699.226 794.745C699.926 790.352 706.018 787.673 712.832 788.762Z" fill="black"/>
<path d="M737.928 763.763C738.989 770.581 743.417 775.552 747.812 774.867C752.206 774.181 754.904 768.099 753.843 761.281C752.781 754.463 748.354 749.492 743.959 750.177C739.564 750.862 736.862 756.945 737.928 763.763Z" fill="black"/>
<path d="M714.124 767.659C720.081 771.834 722.733 778.333 720.04 782.175C717.351 786.018 710.337 785.748 704.375 781.574C698.418 777.399 695.766 770.899 698.459 767.057C701.148 763.214 708.162 763.484 714.124 767.659Z" fill="black"/>
<path d="M716.818 764.974C720.968 770.95 727.458 773.624 731.31 770.947C735.163 768.27 734.922 761.256 730.768 755.28C726.614 749.304 720.124 746.63 716.271 749.308C712.419 751.985 712.665 758.999 716.818 764.974Z" fill="black"/>
<path d="M420.451 565.023C413.131 565.584 411.782 572.529 405.477 579.107C396.228 588.754 398.482 596.603 404.522 597.952C410.558 599.296 415.287 592.329 421.754 592.134C421.772 592.129 421.795 592.129 421.814 592.129C421.833 592.129 421.856 592.129 421.874 592.125C428.327 591.675 433.733 598.133 439.607 596.186C445.476 594.243 446.931 586.209 436.76 577.535C429.829 571.625 427.79 564.847 420.451 565.023Z" fill="black"/>
<path d="M402.492 560.48C406.827 565.848 407.532 572.468 404.073 575.259C400.61 578.054 394.292 575.964 389.957 570.595C385.622 565.227 384.918 558.611 388.376 555.816C391.839 553.021 398.158 555.111 402.492 560.48Z" fill="black"/>
<path d="M437.867 558.7C434.094 564.476 434.052 571.133 437.775 573.567C441.502 576.001 447.58 573.289 451.353 567.512C455.127 561.736 455.164 555.079 451.441 552.645C447.719 550.211 441.641 552.923 437.867 558.7Z" fill="black"/>
<path d="M417.575 545.663C419.207 552.756 416.824 559.358 412.253 560.41C407.682 561.463 402.652 556.572 401.02 549.479C399.384 542.386 401.767 535.784 406.338 534.732C410.909 533.68 415.939 538.575 417.575 545.663Z" fill="black"/>
<path d="M421.373 545.473C420.46 552.691 423.487 559.023 428.142 559.612C432.796 560.201 437.312 554.828 438.225 547.61C439.143 540.387 436.111 534.059 431.457 533.47C426.802 532.882 422.287 538.255 421.373 545.473Z" fill="black"/>
<path d="M882.535 500.408C875.925 503.603 877.204 510.561 873.732 518.984C868.642 531.344 873.607 537.825 879.721 536.879C885.832 535.929 887.69 527.714 893.638 525.169C893.657 525.164 893.675 525.155 893.694 525.146C893.712 525.136 893.731 525.127 893.75 525.118C899.595 522.345 906.985 526.383 911.742 522.429C916.498 518.474 914.922 510.464 902.284 506.101C893.675 503.13 889.304 497.567 882.535 500.408Z" fill="black"/>
<path d="M864.154 502.73C870.148 506.147 873.222 512.053 871.02 515.915C868.818 519.781 862.17 520.143 856.176 516.726C850.182 513.31 847.108 507.403 849.31 503.542C851.512 499.675 858.16 499.314 864.154 502.73Z" fill="black"/>
<path d="M896.437 488.165C895.033 494.92 897.425 501.132 901.782 502.036C906.136 502.945 910.804 498.202 912.209 491.443C913.613 484.688 911.221 478.481 906.868 477.572C902.515 476.668 897.842 481.411 896.437 488.165Z" fill="black"/>
<path d="M872.789 483.432C876.897 489.44 877.091 496.454 873.22 499.105C869.349 501.753 862.878 499.031 858.77 493.028C854.658 487.02 854.468 480.006 858.339 477.354C862.21 474.707 868.682 477.428 872.789 483.432Z" fill="black"/>
<path d="M876.256 481.87C878.037 488.925 883.169 493.71 887.716 492.56C892.269 491.41 894.508 484.762 892.723 477.707C890.943 470.651 885.806 465.862 881.259 467.012C876.711 468.166 874.472 474.814 876.256 481.87Z" fill="black"/>
<path d="M543.4 702.85C536.108 702.002 533.456 708.562 526.011 713.813C515.089 721.517 515.802 729.651 521.472 732.127C527.137 734.603 533.113 728.667 539.501 729.707C539.52 729.711 539.538 729.714 539.557 729.718C539.58 729.72 539.599 729.722 539.617 729.725C546.042 730.515 550.113 737.887 556.246 737.099C562.379 736.311 565.346 728.703 557.02 718.247C551.346 711.119 550.637 704.08 543.4 702.85Z" fill="black"/>
<path d="M526.641 694.958C529.868 701.056 529.298 707.687 525.366 709.768C521.435 711.849 515.631 708.592 512.4 702.494C509.173 696.395 509.743 689.764 513.675 687.685C517.606 685.603 523.41 688.857 526.641 694.958Z" fill="black"/>
<path d="M561.702 699.971C556.894 704.92 555.582 711.445 558.772 714.545C561.966 717.644 568.447 716.144 573.254 711.195C578.062 706.245 579.374 699.72 576.184 696.621C572.995 693.521 566.509 695.021 561.702 699.971Z" fill="black"/>
<path d="M544.276 683.299C544.526 690.57 540.924 696.596 536.237 696.756C531.55 696.917 527.545 691.152 527.299 683.879C527.049 676.605 530.646 670.578 535.338 670.421C540.025 670.259 544.026 676.026 544.276 683.299Z" fill="black"/>
<path d="M548.041 683.836C545.764 690.747 547.531 697.539 551.986 699.007C556.441 700.475 561.897 696.063 564.174 689.149C566.45 682.242 564.684 675.445 560.228 673.98C555.773 672.511 550.317 676.924 548.041 683.836Z" fill="black"/>
<path d="M102.439 925.575C95.1961 924.379 92.2334 930.805 84.5447 935.695C73.2651 942.867 73.5892 951.026 79.1323 953.771C84.675 956.515 90.927 950.873 97.2554 952.218C97.2754 952.222 97.2948 952.227 97.3143 952.232C97.3342 952.232 97.3542 952.236 97.3736 952.241C103.75 953.335 107.463 960.896 113.629 960.405C119.795 959.909 123.121 952.45 115.305 941.606C109.978 934.217 109.608 927.152 102.439 925.575Z" fill="black"/>
<path d="M86.0767 916.893C89.0089 923.137 88.1216 929.734 84.0948 931.625C80.0681 933.512 74.4267 929.984 71.4945 923.735C68.5623 917.491 69.4496 910.894 73.4763 909.007C77.5031 907.115 83.1445 910.643 86.0767 916.893Z" fill="black"/>
<path d="M120.858 923.577C115.818 928.292 114.197 934.745 117.235 937.994C120.274 941.244 126.822 940.057 131.862 935.343C136.901 930.628 138.523 924.175 135.485 920.925C132.446 917.68 125.897 918.867 120.858 923.577Z" fill="black"/>
<path d="M104.252 906.091C104.153 913.364 100.269 919.21 95.5783 919.15C90.8877 919.085 87.166 913.133 87.2656 905.859C87.3658 898.58 91.2492 892.735 95.9398 892.799C100.63 892.864 104.352 898.812 104.252 906.091Z" fill="black"/>
<path d="M107.986 906.81C105.381 913.601 106.819 920.472 111.2 922.15C115.58 923.833 121.242 919.684 123.848 912.892C126.453 906.096 125.015 899.226 120.635 897.547C116.255 895.869 110.591 900.014 107.986 906.81Z" fill="black"/>
<path d="M285.292 1116.32C279.72 1121.1 282.742 1127.5 281.551 1136.53C279.803 1149.78 286.265 1154.77 291.926 1152.29C297.591 1149.8 297.28 1141.39 302.38 1137.4C302.394 1137.39 302.412 1137.38 302.426 1137.37C302.44 1137.35 302.459 1137.34 302.473 1137.32C307.41 1133.14 315.588 1135.16 319.171 1130.11C322.75 1125.07 319.171 1117.73 305.843 1116.76C296.756 1116.09 291.101 1111.84 285.292 1116.32Z" fill="black"/>
<path d="M268.119 1123.28C274.79 1125.05 279.277 1129.96 278.137 1134.27C277.001 1138.56 270.673 1140.62 264.002 1138.86C257.331 1137.09 252.843 1132.18 253.984 1127.87C255.12 1123.58 261.447 1121.52 268.119 1123.28Z" fill="black"/>
<path d="M295.588 1100.92C295.963 1107.81 299.871 1113.2 304.313 1112.95C308.754 1112.71 312.05 1106.93 311.674 1100.04C311.299 1093.15 307.391 1087.76 302.95 1088C298.508 1088.25 295.212 1094.03 295.588 1100.92Z" fill="black"/>
<path d="M271.52 1102.41C277.032 1107.16 279.016 1113.89 275.956 1117.45C272.892 1121 265.943 1120.03 260.431 1115.28C254.919 1110.53 252.93 1103.8 255.994 1100.25C259.054 1096.69 266.008 1097.66 271.52 1102.41Z" fill="black"/>
<path d="M274.466 1100.01C277.999 1106.37 284.188 1109.68 288.29 1107.4C292.388 1105.13 292.847 1098.12 289.315 1091.76C285.782 1085.4 279.593 1082.09 275.491 1084.37C271.392 1086.65 270.929 1093.65 274.466 1100.01Z" fill="black"/>
<path d="M871.064 944.587C864.56 947.99 866.057 954.902 862.859 963.432C858.163 975.949 863.327 982.273 869.405 981.128C875.487 979.987 877.086 971.717 882.951 968.986C882.969 968.977 882.988 968.968 883.006 968.963C883.02 968.954 883.039 968.944 883.057 968.935C888.811 965.973 896.325 969.779 900.952 965.676C905.583 961.573 903.752 953.613 890.985 949.654C882.283 946.956 877.74 941.532 871.064 944.587Z" fill="black"/>
<path d="M852.766 947.494C858.866 950.721 862.125 956.52 860.044 960.456C857.967 964.388 851.338 964.958 845.237 961.736C839.136 958.509 835.877 952.705 837.958 948.774C840.035 944.843 846.665 944.268 852.766 947.494Z" fill="black"/>
<path d="M884.575 931.913C883.388 938.709 885.975 944.843 890.356 945.608C894.737 946.373 899.253 941.486 900.444 934.69C901.635 927.894 899.048 921.761 894.668 920.996C890.282 920.226 885.767 925.117 884.575 931.913Z" fill="black"/>
<path d="M860.787 927.931C865.085 933.805 865.502 940.81 861.715 943.582C857.932 946.349 851.376 943.837 847.079 937.963C842.782 932.094 842.369 925.085 846.152 922.317C849.939 919.545 856.49 922.057 860.787 927.931Z" fill="black"/>
<path d="M864.206 926.257C866.213 933.252 871.494 937.874 876.004 936.581C880.51 935.287 882.541 928.57 880.534 921.574C878.531 914.579 873.246 909.957 868.74 911.25C864.229 912.544 862.199 919.261 864.206 926.257Z" fill="black"/>
<path d="M850.746 661.111C844.358 657.5 839.365 662.512 830.464 664.459C817.405 667.314 814.906 675.084 819.166 679.567C823.427 684.055 831.238 680.907 836.718 684.347C836.732 684.356 836.75 684.365 836.769 684.379C836.783 684.388 836.801 684.398 836.82 684.407C842.429 687.629 843.315 696.006 849.272 697.664C855.234 699.321 860.922 693.463 857.315 680.592C854.853 671.82 856.935 665.061 850.746 661.111Z" fill="black"/>
<path d="M838.369 647.33C838.976 654.205 835.87 660.092 831.443 660.482C827.011 660.871 822.927 655.614 822.324 648.739C821.717 641.869 824.818 635.981 829.25 635.591C833.682 635.202 837.766 640.455 838.369 647.33Z" fill="black"/>
<path d="M868.728 665.57C862.373 668.264 858.632 673.767 860.365 677.865C862.104 681.958 868.659 683.099 875.015 680.405C881.366 677.712 885.112 672.209 883.373 668.116C881.639 664.017 875.08 662.882 868.728 665.57Z" fill="black"/>
<path d="M859.151 643.439C856.554 650.235 850.894 654.389 846.513 652.715C842.132 651.042 840.686 644.176 843.282 637.375C845.878 630.579 851.534 626.425 855.915 628.099C860.3 629.772 861.747 636.638 859.151 643.439Z" fill="black"/>
<path d="M862.411 645.396C857.627 650.88 856.616 657.825 860.149 660.908C863.686 663.995 870.426 662.048 875.211 656.564C879.995 651.079 881.01 644.135 877.473 641.052C873.936 637.969 867.195 639.912 862.411 645.396Z" fill="black"/>
<path d="M-5.52589 1112.07C-11.5414 1116.28 -9.17065 1122.95 -11.2536 1131.82C-14.3095 1144.83 -8.37559 1150.44 -2.49264 1148.53C3.39032 1146.62 3.91743 1138.21 9.38454 1134.75C9.40169 1134.74 9.41885 1134.73 9.43554 1134.72C9.45223 1134.71 9.46845 1134.7 9.48514 1134.69C14.8127 1131.02 22.7517 1133.82 26.8164 1129.17C30.8817 1124.5 28.0491 1116.84 14.8804 1114.55C5.90483 1112.99 0.702902 1108.19 -5.52589 1112.07Z" fill="black"/>
<path d="M6.25232 1097.78C5.94218 1104.67 9.29346 1110.42 13.737 1110.62C18.1809 1110.82 22.0348 1105.39 22.3449 1098.5C22.6555 1091.61 19.3042 1085.86 14.8607 1085.65C10.4167 1085.45 6.56247 1090.88 6.25232 1097.78Z" fill="black"/>
<path d="M-14.6768 1094.78C-11.7918 1101.46 -5.96172 1105.36 -1.65497 1103.5C2.65177 1101.64 3.80425 1094.72 0.91933 1088.04C-1.96559 1081.36 -7.79522 1077.45 -12.102 1079.31C-16.4092 1081.17 -17.5617 1088.1 -14.6768 1094.78Z" fill="black"/>
</g>
<g opacity="0.1">
<path d="M1179.83 653.226C1181.51 620.158 1142.86 635.577 1166 682.622C1217.62 667.657 1204.62 629.912 1179.83 653.226Z" fill="black"/>
<path d="M1598.15 645.354C1604.28 612.815 1563.91 622.87 1580.47 672.608C1633.64 664.76 1625.86 625.6 1598.15 645.354Z" fill="black"/>
<path d="M1329.67 1124.87C1308.09 1099.76 1290.73 1137.58 1339.91 1155.7C1366.99 1109.28 1331.55 1090.9 1329.67 1124.87Z" fill="black"/>
<path d="M1207.56 495.597C1214.7 463.27 1174.03 472.055 1189.03 522.29C1242.42 516.106 1235.87 476.724 1207.56 495.597Z" fill="black"/>
<path d="M1856.56 1030.58C1844.17 999.876 1815.59 1030.12 1856.37 1063.07C1896.9 1027.78 1869.24 999.004 1856.56 1030.58Z" fill="black"/>
<path d="M1423.26 600.701C1402.74 574.726 1383.83 611.785 1432.23 631.933C1461.19 586.663 1426.54 566.835 1423.26 600.701Z" fill="black"/>
<path d="M1461.64 1044.66C1465.1 1011.73 1425.68 1025.03 1446.23 1073.27C1498.58 1061.12 1487.65 1022.73 1461.64 1044.66Z" fill="black"/>
<path d="M1116.46 800.699C1110.92 768.057 1076.54 791.498 1109.33 832.398C1156.47 806.585 1135.59 772.561 1116.46 800.699Z" fill="black"/>
<path d="M1684.64 1114.44C1685.37 1081.34 1647.18 1097.85 1671.64 1144.22C1722.81 1127.8 1708.75 1090.44 1684.64 1114.44Z" fill="black"/>
<path d="M1496.34 864.224C1487.31 832.371 1455.66 859.375 1492.67 896.509C1536.75 865.773 1512.33 834.193 1496.34 864.224Z" fill="black"/>
<path d="M1447.01 392.897C1416.42 380.246 1418 421.825 1470.08 415.78C1473.26 362.129 1433.34 361.74 1447.01 392.897Z" fill="black"/>
<path d="M1225.8 363.032C1210.8 333.511 1184.95 366.111 1228.41 395.414C1265.75 356.76 1235.7 330.479 1225.8 363.032Z" fill="black"/>
<path d="M1089.03 1072.15C1058.79 1058.67 1059.25 1100.28 1111.47 1095.65C1116.11 1042.11 1076.22 1040.63 1089.03 1072.15Z" fill="black"/>
<path d="M1613.73 409.823C1595.51 382.179 1573.49 417.486 1619.99 441.704C1652.73 399.091 1619.91 376.361 1613.73 409.823Z" fill="black"/>
<path d="M1395.32 750.577C1365.22 736.774 1365.23 778.383 1417.5 774.315C1422.71 720.825 1382.84 718.922 1395.32 750.577Z" fill="black"/>
<path d="M1012.43 477.511C1016.43 444.642 976.795 457.303 996.555 505.859C1049.1 494.571 1038.79 456 1012.43 477.511Z" fill="black"/>
<path d="M1816.19 593.465C1804.13 562.631 1775.23 592.57 1815.65 625.953C1856.56 591.1 1829.2 562.029 1816.19 593.465Z" fill="black"/>
<path d="M1913.62 851.226C1900.73 820.731 1872.65 851.443 1913.97 883.714C1953.91 847.762 1925.77 819.446 1913.62 851.226Z" fill="black"/>
<path d="M1268.43 912.373C1251.53 883.904 1227.87 918.131 1273.17 944.514C1307.89 903.486 1276.17 879.24 1268.43 912.373Z" fill="black"/>
<path d="M1812.56 443.618C1807.8 410.857 1772.87 433.471 1804.68 475.143C1852.42 450.456 1832.36 415.942 1812.56 443.618Z" fill="black"/>
<path d="M1667.74 821.355C1672.16 788.545 1632.36 800.697 1651.51 849.5C1704.19 838.884 1694.37 800.186 1667.74 821.355Z" fill="black"/>
<path d="M1121.51 413.049C1114.95 409.753 1110.21 415.005 1101.42 417.383C1088.51 420.87 1086.39 428.76 1090.87 433.03C1095.34 437.299 1102.99 433.771 1108.63 436.942C1108.65 436.952 1108.67 436.961 1108.68 436.97C1108.7 436.979 1108.72 436.989 1108.74 436.998C1114.5 439.942 1115.79 448.263 1121.83 449.631C1127.86 450.994 1133.25 444.865 1129.02 432.186C1126.14 423.545 1127.89 416.688 1121.51 413.049Z" fill="black"/>
<path d="M1108.48 399.888C1109.42 406.726 1106.61 412.757 1102.2 413.364C1097.79 413.967 1093.46 408.918 1092.52 402.08C1091.58 395.247 1094.39 389.211 1098.79 388.609C1103.2 388.001 1107.54 393.054 1108.48 399.888Z" fill="black"/>
<path d="M1139.69 416.628C1133.48 419.628 1130.01 425.307 1131.94 429.312C1133.87 433.317 1140.48 434.133 1146.69 431.134C1152.91 428.134 1156.38 422.456 1154.44 418.45C1152.51 414.445 1145.9 413.629 1139.69 416.628Z" fill="black"/>
<path d="M1129.04 394.988C1126.78 401.904 1121.33 406.327 1116.87 404.871C1112.42 403.411 1110.63 396.624 1112.89 389.707C1115.16 382.79 1120.6 378.363 1125.06 379.824C1129.52 381.279 1131.3 388.071 1129.04 394.988Z" fill="black"/>
<path d="M1132.39 396.783C1127.88 402.494 1127.21 409.48 1130.89 412.387C1134.57 415.294 1141.22 413.022 1145.73 407.311C1150.24 401.604 1150.91 394.618 1147.23 391.706C1143.54 388.8 1136.9 391.071 1132.39 396.783Z" fill="black"/>
<path d="M1929.74 475.226C1922.42 475.759 1921.04 482.703 1914.71 489.254C1905.43 498.869 1907.65 506.722 1913.68 508.094C1919.71 509.466 1924.47 502.513 1930.94 502.341C1930.96 502.341 1930.98 502.341 1931 502.341C1931.02 502.336 1931.04 502.336 1931.06 502.336C1937.52 501.91 1942.89 508.386 1948.77 506.462C1954.65 504.539 1956.14 496.509 1946 487.798C1939.09 481.864 1937.08 475.082 1929.74 475.226Z" fill="black"/>
<path d="M1911.8 470.618C1916.11 476 1916.79 482.62 1913.32 485.401C1909.84 488.183 1903.53 486.069 1899.22 480.687C1894.91 475.3 1894.23 468.68 1897.7 465.898C1901.17 463.117 1907.48 465.231 1911.8 470.618Z" fill="black"/>
<path d="M1926.93 455.857C1928.54 462.955 1926.14 469.547 1921.56 470.585C1916.98 471.619 1911.97 466.705 1910.36 459.612C1908.76 452.515 1911.17 445.918 1915.74 444.884C1920.32 443.845 1925.33 448.759 1926.93 455.857Z" fill="black"/>
<path d="M1263.03 737.059C1255.75 738.062 1254.83 745.076 1248.93 752.022C1240.28 762.212 1243.01 769.909 1249.11 770.889C1255.22 771.87 1259.52 764.628 1265.96 764.039C1265.98 764.037 1266 764.036 1266.02 764.034C1266.04 764.031 1266.06 764.029 1266.08 764.026C1272.5 763.185 1278.28 769.306 1284.03 767.009C1289.77 764.712 1290.74 756.603 1280.06 748.561C1272.79 743.08 1270.34 736.44 1263.03 737.059Z" fill="black"/>
<path d="M1244.82 733.61C1249.47 738.707 1250.58 745.27 1247.29 748.268C1244.01 751.266 1237.57 749.564 1232.92 744.467C1228.27 739.369 1227.17 732.806 1230.45 729.808C1233.74 726.81 1240.17 728.512 1244.82 733.61Z" fill="black"/>
<path d="M1280.03 729.697C1276.61 735.691 1276.97 742.337 1280.83 744.54C1284.7 746.743 1290.6 743.669 1294.02 737.675C1297.44 731.681 1297.07 725.035 1293.21 722.832C1289.35 720.629 1283.44 723.703 1280.03 729.697Z" fill="black"/>
<path d="M1258.99 717.91C1261.04 724.889 1259.07 731.623 1254.57 732.951C1250.07 734.278 1244.75 729.697 1242.69 722.718C1240.63 715.738 1242.61 709.004 1247.11 707.676C1251.61 706.349 1256.93 710.93 1258.99 717.91Z" fill="black"/>
<path d="M1262.77 717.49C1262.29 724.752 1265.7 730.887 1270.38 731.194C1275.06 731.501 1279.24 725.864 1279.72 718.603C1280.19 711.342 1276.79 705.206 1272.1 704.899C1267.42 704.592 1263.24 710.229 1262.77 717.49Z" fill="black"/>
<path d="M1726.11 385.994C1720.66 390.908 1723.83 397.232 1722.86 406.29C1721.43 419.581 1728.01 424.416 1733.61 421.793C1739.21 419.173 1738.7 410.768 1743.7 406.661C1743.72 406.647 1743.73 406.633 1743.75 406.624C1743.76 406.61 1743.78 406.596 1743.79 406.582C1748.63 402.28 1756.85 404.093 1760.31 398.965C1763.77 393.838 1760.02 386.588 1746.66 385.934C1737.57 385.489 1731.82 381.372 1726.11 385.994Z" fill="black"/>
<path d="M1709.11 393.365C1715.82 394.969 1720.43 399.776 1719.39 404.102C1718.36 408.432 1712.08 410.638 1705.37 409.034C1698.66 407.43 1694.05 402.623 1695.09 398.293C1696.12 393.968 1702.4 391.761 1709.11 393.365Z" fill="black"/>
<path d="M1736.04 370.348C1736.57 377.228 1740.61 382.522 1745.04 382.174C1749.48 381.827 1752.63 375.967 1752.1 369.087C1751.55 362.207 1747.52 356.913 1743.08 357.261C1738.65 357.613 1735.49 363.473 1736.04 370.348Z" fill="black"/>
<path d="M1712.01 372.42C1717.63 377.038 1719.78 383.723 1716.8 387.348C1713.83 390.973 1706.86 390.171 1701.23 385.554C1695.6 380.936 1693.46 374.256 1696.43 370.631C1699.41 367.001 1706.38 367.808 1712.01 372.42Z" fill="black"/>
<path d="M1714.9 369.95C1718.58 376.227 1724.85 379.388 1728.89 377.01C1732.94 374.637 1733.23 367.623 1729.54 361.345C1725.86 355.073 1719.59 351.911 1715.55 354.29C1711.5 356.663 1711.21 363.677 1714.9 369.95Z" fill="black"/>
<path d="M1514.38 732.924C1507.07 732.279 1504.6 738.91 1497.3 744.366C1486.6 752.37 1487.54 760.481 1493.27 762.799C1499.01 765.117 1504.81 759.017 1511.22 759.88C1511.25 759.883 1511.27 759.885 1511.28 759.888C1511.31 759.89 1511.33 759.892 1511.34 759.894C1517.79 760.505 1522.06 767.762 1528.17 766.804C1534.28 765.845 1537.04 758.158 1528.42 747.936C1522.55 740.969 1521.65 733.953 1514.38 732.924Z" fill="black"/>
<path d="M1497.41 725.501C1500.8 731.507 1500.42 738.151 1496.54 740.341C1492.67 742.53 1486.78 739.436 1483.38 733.429C1479.99 727.423 1480.37 720.779 1484.24 718.589C1488.12 716.4 1494.01 719.495 1497.41 725.501Z" fill="black"/>
<path d="M1532.6 729.538C1527.93 734.619 1526.8 741.178 1530.07 744.187C1533.35 747.197 1539.79 745.517 1544.46 740.436C1549.13 735.355 1550.25 728.797 1546.98 725.787C1543.7 722.777 1537.26 724.456 1532.6 729.538Z" fill="black"/>
<path d="M1514.71 713.354C1515.16 720.618 1511.73 726.741 1507.05 727.031C1502.37 727.322 1498.21 721.669 1497.76 714.407C1497.31 707.144 1500.74 701.021 1505.41 700.73C1510.1 700.439 1514.26 706.092 1514.71 713.354Z" fill="black"/>
<path d="M1518.49 713.789C1516.41 720.76 1518.36 727.502 1522.85 728.845C1527.35 730.189 1532.68 725.626 1534.76 718.654C1536.85 711.682 1534.89 704.941 1530.4 703.597C1525.91 702.254 1520.57 706.817 1518.49 713.789Z" fill="black"/>
<path d="M1303.27 565.791C1296.73 562.468 1291.96 567.697 1283.16 570.038C1270.24 573.473 1268.09 581.35 1272.55 585.642C1277 589.931 1284.67 586.435 1290.29 589.629C1290.31 589.639 1290.33 589.648 1290.35 589.657C1290.36 589.666 1290.38 589.676 1290.4 589.685C1296.15 592.652 1297.41 600.983 1303.43 602.373C1309.46 603.759 1314.88 597.654 1310.7 584.956C1307.85 576.306 1309.63 569.458 1303.27 565.791Z" fill="black"/>
<path d="M1290.29 552.575C1291.2 559.413 1288.37 565.435 1283.96 566.024C1279.55 566.608 1275.23 561.541 1274.32 554.703C1273.41 547.86 1276.25 541.843 1280.66 541.254C1285.07 540.665 1289.38 545.737 1290.29 552.575Z" fill="black"/>
<path d="M1321.43 569.445C1315.21 572.416 1311.71 578.081 1313.63 582.096C1315.55 586.111 1322.15 586.954 1328.38 583.978C1334.6 581.007 1338.1 575.342 1336.18 571.327C1334.26 567.312 1327.66 566.468 1321.43 569.445Z" fill="black"/>
<path d="M1310.88 547.757C1308.59 554.665 1303.12 559.069 1298.67 557.59C1294.21 556.116 1292.46 549.32 1294.75 542.412C1297.04 535.505 1302.51 531.101 1306.96 532.579C1311.41 534.054 1313.17 540.85 1310.88 547.757Z" fill="black"/>
<path d="M1314.22 549.571C1309.69 555.264 1308.99 562.245 1312.65 565.171C1316.32 568.091 1322.97 565.847 1327.51 560.155C1332.04 554.462 1332.74 547.48 1329.07 544.555C1325.4 541.634 1318.75 543.878 1314.22 549.571Z" fill="black"/>
<path d="M1801.29 1119.49C1794.07 1120.79 1793.43 1127.84 1787.83 1135.02C1779.61 1145.56 1782.65 1153.14 1788.79 1153.87C1794.94 1154.59 1798.93 1147.18 1805.35 1146.32C1805.37 1146.32 1805.39 1146.32 1805.4 1146.31C1805.43 1146.31 1805.45 1146.31 1805.46 1146.3C1811.84 1145.2 1817.88 1151.08 1823.52 1148.54C1829.16 1146.01 1829.79 1137.87 1818.79 1130.27C1811.3 1125.1 1808.58 1118.57 1801.29 1119.49Z" fill="black"/>
<path d="M1782.97 1116.79C1787.82 1121.69 1789.2 1128.21 1786.04 1131.34C1782.88 1134.47 1776.38 1133.04 1771.52 1128.13C1766.67 1123.23 1765.29 1116.72 1768.45 1113.59C1771.61 1110.46 1778.11 1111.89 1782.97 1116.79Z" fill="black"/>
<path d="M1817.98 1111.43C1814.81 1117.56 1815.44 1124.18 1819.4 1126.22C1823.35 1128.27 1829.12 1124.95 1832.29 1118.82C1835.45 1112.69 1834.82 1106.07 1830.86 1104.02C1826.91 1101.98 1821.14 1105.3 1817.98 1111.43Z" fill="black"/>
<path d="M1796.46 1100.52C1798.81 1107.41 1797.11 1114.22 1792.67 1115.73C1788.23 1117.25 1782.73 1112.89 1780.39 1106C1778.03 1099.11 1779.74 1092.3 1784.17 1090.79C1788.61 1089.27 1794.12 1093.63 1796.46 1100.52Z" fill="black"/>
<path d="M1800.22 1099.95C1800.04 1107.22 1803.7 1113.21 1808.39 1113.32C1813.08 1113.44 1817.03 1107.63 1817.2 1100.35C1817.37 1093.08 1813.72 1087.09 1809.03 1086.98C1804.34 1086.86 1800.39 1092.67 1800.22 1099.95Z" fill="black"/>
<path d="M1052.55 587.202C1046.77 582.668 1041.09 586.878 1031.99 587.462C1018.65 588.324 1015.01 595.63 1018.55 600.707C1022.09 605.778 1030.29 603.836 1035.19 608.064C1035.2 608.078 1035.22 608.087 1035.23 608.101C1035.25 608.115 1035.26 608.129 1035.28 608.138C1040.34 612.167 1039.96 620.581 1045.6 623.117C1051.25 625.648 1057.75 620.711 1056.11 607.447C1055 598.403 1058.07 592.033 1052.55 587.202Z" fill="black"/>
<path d="M1042.38 571.712C1041.95 578.601 1038 583.956 1033.56 583.673C1029.12 583.395 1025.87 577.586 1026.3 570.697C1026.74 563.813 1030.69 558.458 1035.13 558.736C1039.57 559.019 1042.82 564.828 1042.38 571.712Z" fill="black"/>
<path d="M1069.65 594.313C1062.97 596.019 1058.44 600.896 1059.54 605.208C1060.64 609.519 1066.95 611.628 1073.64 609.918C1080.33 608.212 1084.85 603.335 1083.75 599.023C1082.65 594.712 1076.34 592.603 1069.65 594.313Z" fill="black"/>
<path d="M1063.51 570.99C1059.92 577.318 1053.71 580.577 1049.62 578.263C1045.54 575.95 1045.14 568.941 1048.73 562.613C1052.32 556.28 1058.54 553.026 1062.62 555.339C1066.7 557.652 1067.1 564.657 1063.51 570.99Z" fill="black"/>
<path d="M1066.44 573.414C1060.88 578.119 1058.84 584.832 1061.87 588.411C1064.9 591.99 1071.86 591.081 1077.42 586.38C1082.97 581.675 1085.01 574.962 1081.98 571.383C1078.95 567.799 1071.99 568.713 1066.44 573.414Z" fill="black"/>
<path d="M1011.14 765.352C1006.47 771.015 1010.54 776.803 1010.91 785.907C1011.45 799.262 1018.67 803.079 1023.82 799.664C1028.98 796.248 1027.24 788.008 1031.58 783.211C1031.59 783.196 1031.61 783.181 1031.62 783.166C1031.63 783.151 1031.65 783.136 1031.66 783.12C1035.81 778.156 1044.21 778.741 1046.88 773.16C1049.55 767.581 1044.77 760.96 1031.47 762.275C1022.4 763.171 1016.1 759.943 1011.14 765.352Z" fill="black"/>
<path d="M995.416 775.143C1002.29 775.744 1007.55 779.823 1007.16 784.254C1006.77 788.686 1000.89 791.792 994.014 791.191C987.14 790.591 981.881 786.512 982.268 782.08C982.655 777.649 988.542 774.543 995.416 775.143Z" fill="black"/>
<path d="M1018.66 748.421C1020.21 755.146 1024.98 759.789 1029.31 758.792C1033.65 757.796 1035.91 751.536 1034.36 744.812C1032.82 738.087 1028.05 733.443 1023.71 734.44C1019.38 735.436 1017.12 741.696 1018.66 748.421Z" fill="black"/>
<path d="M995.202 754C1001.44 757.74 1004.55 764.034 1002.14 768.058C999.729 772.083 992.714 772.314 986.471 768.574C980.229 764.834 977.123 758.54 979.534 754.516C981.945 750.492 988.959 750.261 995.202 754Z" fill="black"/>
<path d="M997.696 751.132C1002.26 756.796 1008.93 759.002 1012.58 756.057C1016.23 753.112 1015.49 746.133 1010.92 740.469C1006.35 734.804 999.689 732.599 996.038 735.544C992.386 738.488 993.128 745.467 997.696 751.132Z" fill="black"/>
<path d="M1930.1 976.719C1924.84 971.592 1918.74 975.166 1909.63 974.777C1896.28 974.202 1891.88 981.081 1894.85 986.501C1897.82 991.925 1906.18 990.872 1910.6 995.601C1910.61 995.615 1910.63 995.629 1910.64 995.643C1910.66 995.657 1910.67 995.671 1910.68 995.685C1915.29 1000.23 1914.01 1008.56 1919.35 1011.68C1924.68 1014.8 1931.68 1010.59 1931.48 997.228C1931.34 988.119 1935.07 982.111 1930.1 976.719Z" fill="black"/>
<path d="M1921.65 960.228C1920.47 967.029 1915.97 971.934 1911.59 971.178C1907.2 970.422 1904.6 964.298 1905.77 957.498C1906.94 950.701 1911.44 945.797 1915.82 946.552C1920.21 947.303 1922.81 953.427 1921.65 960.228Z" fill="black"/>
<path d="M1339.16 382.527C1331.87 381.623 1329.17 388.164 1321.69 393.361C1310.71 400.983 1311.36 409.119 1317.01 411.64C1322.66 414.158 1328.68 408.266 1335.06 409.355C1335.08 409.36 1335.1 409.36 1335.12 409.364C1335.13 409.364 1335.15 409.369 1335.17 409.374C1341.59 410.208 1345.61 417.611 1351.75 416.87C1357.89 416.128 1360.91 408.544 1352.66 398.025C1347.04 390.853 1346.38 383.811 1339.16 382.527Z" fill="black"/>
<path d="M1322.46 374.511C1325.64 380.631 1325.02 387.26 1321.07 389.309C1317.12 391.363 1311.35 388.062 1308.16 381.938C1304.98 375.819 1305.6 369.189 1309.55 367.14C1313.49 365.086 1319.27 368.387 1322.46 374.511Z" fill="black"/>
<path d="M1357.48 379.783C1352.64 384.697 1351.28 391.215 1354.44 394.335C1357.61 397.459 1364.11 396.008 1368.95 391.094C1373.8 386.18 1375.16 379.667 1371.99 376.542C1368.82 373.418 1362.33 374.869 1357.48 379.783Z" fill="black"/>
<path d="M1340.18 362.981C1340.37 370.255 1336.73 376.254 1332.04 376.379C1327.35 376.504 1323.39 370.709 1323.2 363.435C1323 356.162 1326.65 350.163 1331.34 350.038C1336.02 349.913 1339.98 355.707 1340.18 362.981Z" fill="black"/>
<path d="M1343.94 363.547C1341.61 370.441 1343.32 377.246 1347.77 378.748C1352.21 380.25 1357.7 375.879 1360.03 368.981C1362.36 362.087 1360.65 355.281 1356.2 353.779C1351.76 352.282 1346.27 356.654 1343.94 363.547Z" fill="black"/>
<path d="M1499.16 470.641C1493.12 474.818 1495.45 481.494 1493.32 490.353C1490.2 503.348 1496.1 508.989 1501.99 507.112C1507.89 505.234 1508.46 496.834 1513.95 493.404C1513.96 493.394 1513.98 493.38 1514 493.371C1514.01 493.362 1514.03 493.348 1514.05 493.339C1519.39 489.695 1527.32 492.551 1531.41 487.91C1535.5 483.274 1532.71 475.597 1519.55 473.233C1510.58 471.62 1505.41 466.794 1499.16 470.641Z" fill="black"/>
<path d="M1481.35 475.768C1487.8 478.221 1491.75 483.58 1490.17 487.738C1488.59 491.897 1482.08 493.278 1475.62 490.821C1469.17 488.369 1465.23 483.01 1466.82 478.851C1468.4 474.693 1474.9 473.316 1481.35 475.768Z" fill="black"/>
<path d="M1511.01 456.409C1510.67 463.298 1513.98 469.069 1518.43 469.292C1522.87 469.519 1526.75 464.114 1527.1 457.22C1527.45 450.331 1524.13 444.559 1519.69 444.337C1515.25 444.11 1511.37 449.515 1511.01 456.409Z" fill="black"/>
<path d="M1486.92 455.37C1491.91 460.674 1493.18 467.576 1489.75 470.789C1486.34 474.002 1479.53 472.31 1474.54 467.006C1469.56 461.703 1468.29 454.8 1471.71 451.587C1475.12 448.375 1481.94 450.067 1486.92 455.37Z" fill="black"/>
<path d="M1490.1 453.294C1492.95 459.989 1498.76 463.929 1503.08 462.093C1507.39 460.258 1508.59 453.341 1505.74 446.647C1502.89 439.948 1497.08 436.007 1492.76 437.843C1488.45 439.679 1487.26 446.596 1490.1 453.294Z" fill="black"/>
<path d="M1742.05 899.947C1735.64 896.368 1730.67 901.408 1721.78 903.401C1708.74 906.322 1706.28 914.11 1710.56 918.57C1714.85 923.029 1722.64 919.84 1728.14 923.252C1728.16 923.261 1728.17 923.275 1728.19 923.284C1728.21 923.294 1728.23 923.303 1728.24 923.312C1733.87 926.506 1734.8 934.879 1740.77 936.506C1746.73 938.128 1752.39 932.241 1748.72 919.39C1746.21 910.633 1748.26 903.86 1742.05 899.947Z" fill="black"/>
<path d="M1729.6 886.23C1730.24 893.101 1727.17 899.002 1722.74 899.42C1718.31 899.832 1714.21 894.598 1713.56 887.728C1712.92 880.857 1715.99 874.951 1720.42 874.539C1724.85 874.126 1728.96 879.36 1729.6 886.23Z" fill="black"/>
<path d="M1760.05 904.31C1753.71 907.036 1750 912.562 1751.76 916.647C1753.51 920.735 1760.08 921.834 1766.42 919.108C1772.76 916.382 1776.47 910.861 1774.71 906.777C1772.96 902.688 1766.39 901.585 1760.05 904.31Z" fill="black"/>
<path d="M1750.36 882.23C1747.8 889.041 1742.16 893.222 1737.77 891.572C1733.38 889.921 1731.9 883.065 1734.46 876.25C1737.02 869.44 1742.65 865.258 1747.04 866.909C1751.43 868.559 1752.92 875.416 1750.36 882.23Z" fill="black"/>
<path d="M1753.63 884.168C1748.88 889.68 1747.9 896.629 1751.45 899.694C1755 902.758 1761.74 900.779 1766.49 895.271C1771.24 889.759 1772.22 882.81 1768.67 879.746C1765.12 876.681 1758.38 878.661 1753.63 884.168Z" fill="black"/>
<path d="M1559.45 938.445C1552.28 936.878 1548.99 943.146 1541.06 947.633C1529.43 954.221 1529.34 962.385 1534.74 965.407C1540.13 968.435 1546.67 963.117 1552.91 964.782C1552.93 964.791 1552.95 964.795 1552.97 964.8C1552.99 964.805 1553.01 964.809 1553.03 964.814C1559.34 966.233 1562.66 973.975 1568.85 973.794C1575.03 973.618 1578.74 966.339 1571.48 955.111C1566.54 947.457 1566.53 940.383 1559.45 938.445Z" fill="black"/>
<path d="M1543.56 928.932C1546.17 935.32 1544.94 941.861 1540.82 943.544C1536.7 945.227 1531.25 941.411 1528.64 935.023C1526.03 928.635 1527.26 922.094 1531.37 920.411C1535.49 918.728 1540.95 922.543 1543.56 928.932Z" fill="black"/>
<path d="M1577.95 937.388C1572.68 941.839 1570.72 948.204 1573.59 951.602C1576.46 955 1583.06 954.152 1588.34 949.701C1593.61 945.251 1595.56 938.886 1592.69 935.487C1589.82 932.089 1583.22 932.938 1577.95 937.388Z" fill="black"/>
<path d="M1562.25 919.072C1561.78 926.336 1557.6 931.973 1552.93 931.672C1548.24 931.366 1544.83 925.233 1545.3 917.973C1545.77 910.713 1549.95 905.071 1554.63 905.377C1559.32 905.679 1562.73 911.812 1562.25 919.072Z" fill="black"/>
<path d="M1565.95 919.98C1563 926.633 1564.09 933.568 1568.38 935.469C1572.66 937.37 1578.53 933.517 1581.48 926.865C1584.43 920.212 1583.34 913.281 1579.05 911.381C1574.76 909.475 1568.9 913.328 1565.95 919.98Z" fill="black"/>
<path d="M989.047 1068.46C984.326 1074.08 988.343 1079.9 988.628 1089.01C989.047 1102.37 996.232 1106.25 1001.42 1102.88C1006.61 1099.51 1004.94 1091.26 1009.32 1086.5C1009.34 1086.49 1009.35 1086.47 1009.36 1086.45C1009.38 1086.44 1009.39 1086.43 1009.4 1086.41C1013.6 1081.49 1021.99 1082.14 1024.71 1076.59C1027.43 1071.03 1022.71 1064.37 1009.4 1065.57C1000.32 1066.38 994.058 1063.09 989.047 1068.46Z" fill="black"/>
<path d="M973.233 1078.11C980.102 1078.77 985.324 1082.9 984.897 1087.33C984.47 1091.75 978.556 1094.8 971.688 1094.15C964.819 1093.48 959.598 1089.36 960.024 1084.93C960.451 1080.5 966.365 1077.45 973.233 1078.11Z" fill="black"/>
<path d="M996.719 1051.6C998.205 1058.33 1002.93 1063.02 1007.27 1062.06C1011.62 1061.11 1013.94 1054.87 1012.45 1048.13C1010.96 1041.39 1006.24 1036.7 1001.89 1037.66C997.551 1038.62 995.233 1044.86 996.719 1051.6Z" fill="black"/>
<path d="M975.727 1054.12C980.244 1059.83 986.887 1062.09 990.565 1059.18C994.243 1056.27 993.563 1049.28 989.047 1043.58C984.53 1037.87 977.887 1035.6 974.209 1038.52C970.531 1041.43 971.21 1048.42 975.727 1054.12Z" fill="black"/>
<path d="M1672.45 565.023C1665.13 565.584 1663.78 572.529 1657.48 579.107C1648.23 588.754 1650.48 596.603 1656.52 597.952C1662.56 599.296 1667.28 592.329 1673.75 592.134C1673.77 592.129 1673.79 592.129 1673.81 592.129C1673.83 592.129 1673.85 592.129 1673.87 592.125C1680.33 591.675 1685.73 598.133 1691.6 596.186C1697.47 594.243 1698.93 586.209 1688.76 577.535C1681.83 571.625 1679.79 564.847 1672.45 565.023Z" fill="black"/>
<path d="M1654.49 560.48C1658.83 565.848 1659.53 572.468 1656.07 575.259C1652.61 578.054 1646.29 575.964 1641.96 570.595C1637.62 565.227 1636.92 558.611 1640.37 555.816C1643.84 553.021 1650.16 555.111 1654.49 560.48Z" fill="black"/>
<path d="M1689.87 558.7C1686.1 564.476 1686.05 571.133 1689.78 573.567C1693.5 576.001 1699.58 573.289 1703.36 567.512C1707.13 561.736 1707.17 555.079 1703.44 552.645C1699.72 550.211 1693.64 552.923 1689.87 558.7Z" fill="black"/>
<path d="M1669.58 545.663C1671.21 552.756 1668.82 559.358 1664.25 560.41C1659.68 561.463 1654.65 556.572 1653.02 549.479C1651.38 542.386 1653.77 535.784 1658.34 534.732C1662.91 533.68 1667.94 538.575 1669.58 545.663Z" fill="black"/>
<path d="M1673.37 545.473C1672.46 552.691 1675.49 559.023 1680.14 559.612C1684.8 560.201 1689.31 554.828 1690.22 547.61C1691.14 540.387 1688.11 534.059 1683.46 533.47C1678.8 532.882 1674.29 538.255 1673.37 545.473Z" fill="black"/>
<path d="M1117.45 922.451C1110.44 920.267 1106.62 926.22 1098.33 929.998C1086.17 935.542 1085.36 943.664 1090.47 947.151C1095.58 950.637 1102.55 945.913 1108.63 948.12C1108.65 948.124 1108.67 948.133 1108.69 948.138C1108.71 948.147 1108.73 948.152 1108.75 948.157C1114.91 950.127 1117.54 958.128 1123.72 958.49C1129.89 958.856 1134.22 951.93 1127.98 940.109C1123.72 932.052 1124.33 925.005 1117.45 922.451Z" fill="black"/>
<path d="M1102.44 911.589C1104.48 918.177 1102.69 924.588 1098.44 925.905C1094.19 927.221 1089.09 922.942 1087.05 916.35C1085.01 909.758 1086.8 903.346 1091.05 902.034C1095.3 900.718 1100.4 904.997 1102.44 911.589Z" fill="black"/>
<path d="M1135.97 923.021C1130.32 926.994 1127.83 933.159 1130.39 936.798C1132.95 940.438 1139.6 940.164 1145.24 936.196C1150.88 932.223 1153.38 926.052 1150.82 922.418C1148.26 918.779 1141.61 919.048 1135.97 923.021Z" fill="black"/>
<path d="M1121.94 903.402C1120.83 910.597 1116.18 915.849 1111.54 915.135C1106.9 914.421 1104.04 908.014 1105.15 900.824C1106.25 893.629 1110.91 888.377 1115.54 889.091C1120.18 889.8 1123.04 896.211 1121.94 903.402Z" fill="black"/>
<path d="M1125.54 904.631C1122.02 911 1122.49 918.001 1126.6 920.272C1130.7 922.539 1136.88 919.215 1140.4 912.85C1143.92 906.48 1143.45 899.475 1139.34 897.209C1135.24 894.937 1129.06 898.261 1125.54 904.631Z" fill="black"/>
<path d="M1795.4 702.85C1788.11 702.002 1785.46 708.562 1778.01 713.813C1767.09 721.517 1767.8 729.651 1773.47 732.127C1779.14 734.603 1785.11 728.667 1791.5 729.707C1791.52 729.711 1791.54 729.714 1791.56 729.718C1791.58 729.72 1791.6 729.722 1791.62 729.725C1798.04 730.515 1802.11 737.887 1808.25 737.099C1814.38 736.311 1817.35 728.703 1809.02 718.247C1803.35 711.119 1802.64 704.08 1795.4 702.85Z" fill="black"/>
<path d="M1778.64 694.958C1781.87 701.056 1781.3 707.687 1777.37 709.768C1773.44 711.849 1767.63 708.592 1764.4 702.494C1761.17 696.395 1761.74 689.764 1765.67 687.685C1769.61 685.603 1775.41 688.857 1778.64 694.958Z" fill="black"/>
<path d="M1813.7 699.971C1808.89 704.92 1807.58 711.445 1810.77 714.545C1813.96 717.644 1820.45 716.144 1825.25 711.195C1830.06 706.245 1831.37 699.72 1828.18 696.621C1824.99 693.521 1818.51 695.021 1813.7 699.971Z" fill="black"/>
<path d="M1796.27 683.299C1796.52 690.57 1792.92 696.596 1788.24 696.756C1783.55 696.917 1779.54 691.152 1779.3 683.879C1779.05 676.605 1782.64 670.578 1787.34 670.421C1792.02 670.259 1796.02 676.026 1796.27 683.299Z" fill="black"/>
<path d="M1800.04 683.836C1797.76 690.747 1799.53 697.539 1803.99 699.007C1808.44 700.475 1813.9 696.063 1816.17 689.149C1818.45 682.242 1816.68 675.445 1812.23 673.98C1807.77 672.511 1802.32 676.924 1800.04 683.836Z" fill="black"/>
<path d="M1354.44 925.575C1347.2 924.379 1344.23 930.805 1336.54 935.695C1325.27 942.867 1325.59 951.026 1331.13 953.771C1336.67 956.515 1342.93 950.873 1349.26 952.218C1349.28 952.222 1349.29 952.227 1349.31 952.232C1349.33 952.232 1349.35 952.236 1349.37 952.241C1355.75 953.335 1359.46 960.896 1365.63 960.405C1371.79 959.909 1375.12 952.45 1367.3 941.606C1361.98 934.217 1361.61 927.152 1354.44 925.575Z" fill="black"/>
<path d="M1338.08 916.893C1341.01 923.137 1340.12 929.734 1336.09 931.625C1332.07 933.512 1326.43 929.984 1323.49 923.735C1320.56 917.491 1321.45 910.894 1325.48 909.007C1329.5 907.115 1335.14 910.643 1338.08 916.893Z" fill="black"/>
<path d="M1372.86 923.577C1367.82 928.292 1366.2 934.745 1369.24 937.994C1372.27 941.244 1378.82 940.057 1383.86 935.343C1388.9 930.628 1390.52 924.175 1387.48 920.925C1384.45 917.68 1377.9 918.867 1372.86 923.577Z" fill="black"/>
<path d="M1356.25 906.091C1356.15 913.364 1352.27 919.21 1347.58 919.15C1342.89 919.085 1339.17 913.133 1339.27 905.859C1339.37 898.58 1343.25 892.735 1347.94 892.799C1352.63 892.864 1356.35 898.812 1356.25 906.091Z" fill="black"/>
<path d="M1359.99 906.81C1357.38 913.601 1358.82 920.472 1363.2 922.15C1367.58 923.833 1373.24 919.684 1375.85 912.892C1378.45 906.096 1377.01 899.226 1372.63 897.547C1368.25 895.869 1362.59 900.014 1359.99 906.81Z" fill="black"/>
<path d="M1537.29 1116.32C1531.72 1121.1 1534.74 1127.5 1533.55 1136.53C1531.8 1149.78 1538.27 1154.77 1543.93 1152.29C1549.59 1149.8 1549.28 1141.39 1554.38 1137.4C1554.39 1137.39 1554.41 1137.38 1554.43 1137.37C1554.44 1137.35 1554.46 1137.34 1554.47 1137.32C1559.41 1133.14 1567.59 1135.16 1571.17 1130.11C1574.75 1125.07 1571.17 1117.73 1557.84 1116.76C1548.76 1116.09 1543.1 1111.84 1537.29 1116.32Z" fill="black"/>
<path d="M1520.12 1123.28C1526.79 1125.05 1531.28 1129.96 1530.14 1134.27C1529 1138.56 1522.67 1140.62 1516 1138.86C1509.33 1137.09 1504.84 1132.18 1505.98 1127.87C1507.12 1123.58 1513.45 1121.52 1520.12 1123.28Z" fill="black"/>
<path d="M1547.59 1100.92C1547.96 1107.81 1551.87 1113.2 1556.31 1112.95C1560.75 1112.71 1564.05 1106.93 1563.67 1100.04C1563.3 1093.15 1559.39 1087.76 1554.95 1088C1550.51 1088.25 1547.21 1094.03 1547.59 1100.92Z" fill="black"/>
<path d="M1523.52 1102.41C1529.03 1107.16 1531.02 1113.89 1527.96 1117.45C1524.89 1121 1517.94 1120.03 1512.43 1115.28C1506.92 1110.53 1504.93 1103.8 1507.99 1100.25C1511.05 1096.69 1518.01 1097.66 1523.52 1102.41Z" fill="black"/>
<path d="M1526.47 1100.01C1530 1106.37 1536.19 1109.68 1540.29 1107.4C1544.39 1105.13 1544.85 1098.12 1541.31 1091.76C1537.78 1085.4 1531.59 1082.09 1527.49 1084.37C1523.39 1086.65 1522.93 1093.65 1526.47 1100.01Z" fill="black"/>
<path d="M1246.47 1112.07C1240.46 1116.28 1242.83 1122.95 1240.75 1131.82C1237.69 1144.83 1243.62 1150.44 1249.51 1148.53C1255.39 1146.62 1255.92 1138.21 1261.38 1134.75C1261.4 1134.74 1261.42 1134.73 1261.44 1134.72C1261.45 1134.71 1261.47 1134.7 1261.49 1134.69C1266.81 1131.02 1274.75 1133.82 1278.82 1129.17C1282.88 1124.5 1280.05 1116.84 1266.88 1114.55C1257.9 1112.99 1252.7 1108.19 1246.47 1112.07Z" fill="black"/>
<path d="M1228.7 1117.3C1235.16 1119.72 1239.14 1125.05 1237.58 1129.22C1236.02 1133.39 1229.52 1134.8 1223.05 1132.39C1216.59 1129.97 1212.62 1124.63 1214.17 1120.46C1215.73 1116.3 1222.24 1114.88 1228.7 1117.3Z" fill="black"/>
<path d="M1258.25 1097.78C1257.94 1104.67 1261.29 1110.42 1265.74 1110.62C1270.18 1110.82 1274.03 1105.39 1274.34 1098.5C1274.66 1091.61 1271.3 1085.86 1266.86 1085.65C1262.42 1085.45 1258.56 1090.88 1258.25 1097.78Z" fill="black"/>
<path d="M1234.15 1096.87C1239.16 1102.15 1240.47 1109.04 1237.07 1112.27C1233.67 1115.5 1226.85 1113.85 1221.84 1108.58C1216.82 1103.3 1215.52 1096.41 1218.92 1093.17C1222.31 1089.94 1229.14 1091.6 1234.15 1096.87Z" fill="black"/>
<path d="M1237.32 1094.78C1240.21 1101.46 1246.04 1105.36 1250.35 1103.5C1254.65 1101.64 1255.8 1094.72 1252.92 1088.04C1250.03 1081.36 1244.2 1077.45 1239.9 1079.31C1235.59 1081.17 1234.44 1088.1 1237.32 1094.78Z" fill="black"/>
</g>
</g>
<defs>
<clipPath id="clip0_35_1218">
<rect width="1920" height="1492" fill="white"/>
</clipPath>
</defs>
</svg>
