<svg width="945" height="209" viewBox="0 0 945 209" fill="none" xmlns="http://www.w3.org/2000/svg">
<path d="M17.112 68.304L17.016 70.608C17.016 70.992 17.08 71.76 17.208 72.912C17.784 73.616 18.392 73.776 19.032 73.392C19.544 73.072 20.696 72.176 22.488 70.704C25.432 66.288 27.864 61.936 29.784 57.648C34.2 47.6 37.336 39.024 39.192 31.92C39.768 29.808 40.312 27.728 40.824 25.68C41.4 23.632 41.944 21.552 42.456 19.44C43.032 17.264 43.672 15.024 44.376 12.72V12.336C45.464 8.56 48.248 5.616 52.728 3.504C57.016 1.392 60.696 1.072 63.768 2.544C65.24 3.248 66.296 4.464 66.936 6.192C67.576 7.856 67.512 10.128 66.744 13.008C65.272 17.424 63.8 22.064 62.328 26.928C60.856 31.792 59.288 36.688 57.624 41.616C55.96 46.48 54.104 51.248 52.056 55.92C50.008 60.592 47.64 64.88 44.952 68.784C39 77.488 31.96 83.248 23.832 86.064C22.936 86.448 22.168 86.672 21.528 86.736C20.952 86.8 20.088 86.896 18.936 87.024C17.784 87.216 16.312 87.248 14.52 87.12C12.792 87.056 11.096 86.768 9.432 86.256C5.592 85.168 3.224 83.248 2.328 80.496C1.304 76.656 0.92 73.872 1.176 72.144C1.368 70.352 1.72 68.912 2.232 67.824C2.744 66.736 3.384 65.584 4.152 64.368H4.248C4.824 63.28 5.72 62.352 6.936 61.584C8.216 60.816 9.528 60.336 10.872 60.144C12.28 59.888 13.56 59.984 14.712 60.432C15.928 60.88 16.728 61.744 17.112 63.024C17.176 63.728 17.208 64.624 17.208 65.712C17.208 66.8 17.176 67.664 17.112 68.304ZM76.3005 14.448C80.3325 9.84 84.8125 6.96 89.7405 5.808C93.1325 4.976 96.3325 5.104 99.3405 6.192C101.709 3.696 104.781 2.8 108.557 3.504C112.013 4.144 114.957 6.096 117.389 9.36C117.517 9.808 117.773 10.48 118.157 11.376C118.605 12.272 119.021 13.264 119.405 14.352C122.221 20.88 122.445 29.456 120.077 40.08C117.133 53.264 111.917 64.432 104.429 73.584C102.125 76.4 99.5325 78.736 96.6525 80.592C92.0445 84.112 86.5405 85.68 80.1405 85.296C76.1725 85.104 72.8445 84.112 70.1565 82.32C59.4685 77.008 55.9805 65.936 59.6925 49.104C62.7645 35.28 68.3005 23.728 76.3005 14.448ZM77.4525 65.424L77.3565 66L77.5485 67.056C77.9325 69.04 78.5725 70.576 79.4685 71.664C80.3645 72.688 81.1005 73.328 81.6765 73.584C82.3165 73.072 82.9565 72.592 83.5965 72.144C84.2365 71.696 84.8125 71.152 85.3245 70.512C89.6765 65.136 93.0685 58.096 95.5005 49.392C97.9325 40.688 98.8285 32.624 98.1885 25.2C95.6925 28.4 93.0685 32.08 90.3165 36.24C87.5645 40.4 85.3885 43.952 83.7885 46.896C80.1405 53.744 78.0285 59.92 77.4525 65.424ZM158.733 13.104C156.493 20.08 154.413 26.384 152.493 32.016C150.637 37.648 148.909 42.832 147.309 47.568C145.773 52.304 144.333 56.688 142.989 60.72C141.645 64.688 140.397 68.496 139.245 72.144C138.605 76.368 136.525 79.344 133.005 81.072C130.957 82.032 128.525 82.512 125.709 82.512C122.893 82.512 120.781 82.192 119.373 81.552C117.965 80.976 117.069 80.112 116.685 78.96C116.237 77.808 116.237 76.432 116.685 74.832C117.069 73.168 117.773 70.928 118.797 68.112C119.821 65.232 121.101 61.36 122.637 56.496C124.237 51.632 125.901 46.704 127.629 41.712C131.917 29.232 135.309 20.592 137.805 15.792C138.765 14 139.725 12.816 140.685 12.24C141.645 11.6 142.573 11.152 143.469 10.896C144.365 10.576 145.197 10.224 145.965 9.84C146.733 9.456 147.405 8.496 147.981 6.96C148.621 5.424 149.741 4.36799 151.341 3.79199C153.005 3.21599 154.541 3.18399 155.949 3.696C157.421 4.144 158.509 5.168 159.213 6.768C159.981 8.304 159.821 10.416 158.733 13.104ZM159.903 40.752C161.183 36.464 162.207 33.168 162.975 30.864C163.807 28.496 164.607 26.384 165.375 24.528C166.143 22.672 167.007 20.88 167.967 19.152C168.991 17.424 170.079 15.856 171.231 14.448C172.447 12.976 173.727 11.824 175.071 10.992C176.415 10.16 177.823 9.744 179.295 9.744C180.767 9.744 182.303 10.32 183.903 11.472C186.463 17.872 188.031 22.16 188.607 24.336C189.375 27.536 190.079 32.048 190.719 37.872C191.295 36.4 191.935 34.864 192.639 33.264C193.407 31.6 194.143 29.936 194.847 28.272C196.831 24.048 198.079 20.848 198.591 18.672C199.999 14.192 202.911 10.832 207.327 8.592C211.167 6.672 214.751 6.064 218.079 6.768C219.423 7.024 220.351 7.568 220.863 8.4C221.439 9.232 221.439 10.096 220.863 10.992C220.351 11.888 220.159 12.752 220.287 13.584C220.479 14.352 220.639 15.28 220.767 16.368C220.959 19.312 220.447 21.936 219.231 24.24C218.015 26.48 216.767 29.296 215.487 32.688C214.207 36.016 212.895 39.568 211.551 43.344C210.271 47.12 208.959 50.96 207.615 54.864C206.271 58.768 204.959 62.32 203.679 65.52C200.863 72.88 198.559 76.944 196.767 77.712C194.335 79.184 192.543 80.048 191.391 80.304C189.919 80.56 187.839 80.56 185.151 80.304C183.487 80.176 182.047 78.032 180.831 73.872C180.127 71.632 179.487 68.528 178.911 64.56C177.887 57.648 177.183 53.84 176.799 53.136C174.239 61.456 172.415 66.704 171.327 68.88C170.303 71.056 169.503 72.496 168.927 73.2C168.415 73.904 167.775 74.832 167.007 75.984C166.175 78.288 164.191 79.984 161.055 81.072C158.367 82.096 155.935 82.256 153.759 81.552C151.391 80.784 150.687 79.312 151.647 77.136C152.351 69.456 155.103 57.328 159.903 40.752ZM277.158 53.424C275.43 58.416 273.67 63.216 271.878 67.824C270.086 72.432 268.582 75.92 267.366 78.288C266.214 80.72 265.19 82.384 264.294 83.28C263.398 84.176 262.47 84.784 261.51 85.104C260.614 85.424 259.686 85.552 258.726 85.488C257.83 85.424 256.902 85.36 255.942 85.296C250.566 84.464 248.902 80.592 250.95 73.68C252.294 68.176 253.382 63.696 254.214 60.24C255.046 56.72 255.718 53.84 256.23 51.6C256.806 49.296 257.286 47.408 257.67 45.936C258.054 44.4 258.47 42.896 258.918 41.424C259.366 39.952 259.91 38.288 260.55 36.432C261.254 34.576 262.15 32.112 263.238 29.04C260.806 29.36 258.63 29.104 256.71 28.272C253.894 27.056 252.742 24.432 253.254 20.4C253.51 18.544 254.502 16.816 256.23 15.216C257.126 14.384 258.182 13.488 259.398 12.528C261.894 10.544 266.854 8.432 274.278 6.192C281.958 3.888 288.55 2.8 294.054 2.92799C295.526 2.672 297.03 2.864 298.566 3.504C300.166 4.08 301.446 4.88 302.406 5.904C303.366 6.928 303.846 8.048 303.846 9.264C303.91 10.48 303.142 11.568 301.542 12.528C300.774 13.04 300.23 13.904 299.91 15.12C299.59 16.272 299.238 17.52 298.854 18.864C298.47 20.144 297.894 21.328 297.126 22.416C296.422 23.504 295.27 24.144 293.67 24.336C292.838 24.784 291.654 25.104 290.118 25.296C288.646 25.488 287.654 25.648 287.142 25.776C286.694 25.84 286.438 26 286.374 26.256C285.222 29.648 283.846 33.776 282.246 38.64C280.646 43.44 278.95 48.368 277.158 53.424ZM264.198 27.984C264.07 27.984 264.006 28.016 264.006 28.08C264.006 28.08 264.07 28.08 264.198 28.08V27.984ZM314.882 57.072L310.274 68.784C309.634 70.576 309.058 72.432 308.546 74.352C308.034 76.272 307.49 77.936 306.914 79.344C306.338 80.816 305.442 81.968 304.226 82.8C303.074 83.632 301.762 84.24 300.29 84.624C298.818 85.072 297.282 85.264 295.682 85.2C294.146 85.136 292.77 84.848 291.553 84.336C288.801 83.056 287.841 80.944 288.673 78C291.617 65.072 294.37 54.704 296.93 46.896C299.554 39.088 301.698 32.944 303.362 28.464C305.09 23.984 306.882 19.248 308.738 14.256C308.93 12.4 309.698 10.736 311.042 9.264C312.386 7.792 313.954 6.576 315.746 5.616C317.602 4.656 319.522 3.984 321.506 3.6C323.49 3.15199 325.25 3.088 326.786 3.408C328.322 3.728 329.442 4.432 330.146 5.51999C330.914 6.608 330.978 8.176 330.338 10.224C328.034 16.112 326.402 20.272 325.442 22.704C324.482 25.136 323.618 27.312 322.85 29.232L320.161 35.568C321.506 35.632 323.202 35.44 325.25 34.992C328.962 34.16 331.65 33.872 333.314 34.128C333.314 33.808 333.474 33.264 333.794 32.496C335.586 24.688 337.602 17.52 339.842 10.992C341.442 5.616 345.57 2.8 352.226 2.544C354.85 2.544 356.834 3.184 358.178 4.464C359.65 5.80799 359.842 7.63199 358.754 9.936C352.866 26.448 348.706 39.472 346.274 49.008C343.522 60.016 341.698 67.44 340.802 71.28C339.97 75.12 339.234 77.392 338.594 78.096C337.954 78.8 337.282 79.28 336.578 79.536C335.938 79.856 335.298 80.144 334.658 80.4C334.018 80.656 333.506 81.296 333.122 82.32H332.834C332.322 83.472 331.202 84.368 329.474 85.008C327.746 85.648 325.986 85.872 324.194 85.68C322.466 85.552 320.994 84.912 319.778 83.76C318.626 82.672 318.338 80.976 318.914 78.672C319.554 75.024 320.61 71.12 322.082 66.96C323.554 62.736 324.706 59.44 325.538 57.072C326.434 54.704 327.17 52.496 327.746 50.448C327.234 50.704 326.722 50.896 326.21 51.024C325.762 51.152 325.186 51.408 324.482 51.792C323.778 52.112 323.042 52.4 322.274 52.656C321.57 52.912 320.866 53.168 320.161 53.424C318.37 54.128 316.898 54.832 315.746 55.536L314.882 57.072ZM325.73 50.64C325.794 50.64 326.114 50.544 326.69 50.352C326.306 50.48 325.986 50.576 325.73 50.64ZM370.071 65.904C373.783 66.288 376.535 66.48 378.327 66.48C380.183 66.48 382.967 66.224 386.679 65.712C387.831 66.096 388.503 66.576 388.695 67.152C388.887 67.728 388.951 68.336 388.887 68.976C388.823 69.552 388.855 70.128 388.983 70.704C389.111 71.28 389.719 71.76 390.807 72.144C391.383 72.336 391.543 72.912 391.287 73.872C391.095 74.768 390.583 75.76 389.751 76.848C387.639 79.6 385.143 81.52 382.263 82.608C377.655 83.76 374.039 84.432 371.415 84.624C367.063 84.944 362.327 84.784 357.207 84.144C351.575 83.12 348.855 80.784 349.047 77.136C349.047 63.696 351.991 50.192 357.879 36.624C359.799 32.208 361.975 27.568 364.407 22.704C364.919 21.68 365.207 20.528 365.271 19.248C365.399 17.968 365.495 16.72 365.559 15.504C365.623 14.288 365.815 13.2 366.135 12.24C366.455 11.28 367.127 10.608 368.151 10.224C381.463 4.912 391.991 2.864 399.735 4.08C402.423 4.144 404.183 5.07199 405.015 6.86399C405.911 8.592 406.007 10.544 405.303 12.72C404.663 14.896 403.351 16.944 401.367 18.864C399.447 20.784 397.015 21.968 394.071 22.416C390.295 23.504 387.991 24.24 387.159 24.624C385.559 25.392 384.407 26.416 383.703 27.696C382.807 29.104 381.975 30.448 381.207 31.728C380.439 33.008 379.895 34.384 379.575 35.856L379.191 37.968C380.407 38.544 381.879 38.736 383.607 38.544C385.399 38.288 387.031 38.064 388.503 37.872C390.039 37.616 391.255 37.584 392.151 37.776C393.111 37.968 393.303 38.928 392.727 40.656C392.215 42.32 391.223 44.208 389.751 46.32C388.343 48.432 386.327 49.968 383.703 50.928C382.039 51.248 380.887 51.504 380.247 51.696C379.671 51.824 379.223 51.92 378.903 51.984C378.455 52.048 377.175 52.144 375.063 52.272C372.055 57.392 370.231 61.36 369.591 64.176C369.335 65.328 369.495 65.904 370.071 65.904ZM471.729 30.192C471.729 28.272 471.057 27.312 469.713 27.312C469.201 27.312 468.593 27.44 467.889 27.696C467.185 27.952 466.513 28.176 465.873 28.368C463.505 29.648 461.649 31.056 460.305 32.592C459.025 34.064 457.713 35.728 456.369 37.584C455.025 39.44 453.873 41.424 452.913 43.536C451.953 45.648 451.217 47.632 450.705 49.488C448.849 56.336 449.553 60.944 452.817 63.312C454.161 64.272 455.569 64.752 457.041 64.752C458.577 64.688 459.793 64.368 460.689 63.792C461.649 63.216 462.577 62.672 463.473 62.16C464.369 61.648 465.393 61.296 466.545 61.104C467.761 60.848 469.233 61.008 470.961 61.584C472.753 62.096 473.713 62.8 473.841 63.696C473.969 64.592 473.969 65.52 473.841 66.48C473.713 67.44 473.681 68.304 473.745 69.072C473.873 69.84 474.577 70.32 475.857 70.512C477.073 72.048 476.305 73.904 473.553 76.08C472.849 76.656 472.177 77.2 471.537 77.712C466.033 81.232 460.177 83.184 453.969 83.568C450.065 83.824 445.905 83.12 441.489 81.456C434.897 78.96 431.185 73.36 430.353 64.656C429.265 56.592 430.289 48.24 433.425 39.6C436.049 32.304 440.017 25.552 445.329 19.344C450.129 13.648 454.865 9.936 459.537 8.20799C465.105 5.328 471.121 4.208 477.585 4.848C484.433 5.744 488.913 8.656 491.025 13.584C493.137 18.512 492.785 24.432 489.969 31.344C489.009 33.776 487.185 35.696 484.497 37.104C482.193 38.384 479.697 39.024 477.009 39.024C474.321 39.024 472.593 38.192 471.825 36.528C471.057 34.8 471.025 32.688 471.729 30.192ZM503.144 14.448C507.176 9.84 511.656 6.96 516.584 5.808C519.976 4.976 523.176 5.104 526.184 6.192C528.552 3.696 531.624 2.8 535.4 3.504C538.856 4.144 541.8 6.096 544.232 9.36C544.36 9.808 544.616 10.48 545 11.376C545.448 12.272 545.864 13.264 546.248 14.352C549.064 20.88 549.288 29.456 546.92 40.08C543.976 53.264 538.76 64.432 531.272 73.584C528.968 76.4 526.376 78.736 523.496 80.592C518.888 84.112 513.384 85.68 506.984 85.296C503.016 85.104 499.688 84.112 497 82.32C486.312 77.008 482.824 65.936 486.536 49.104C489.608 35.28 495.144 23.728 503.144 14.448ZM504.296 65.424L504.2 66L504.392 67.056C504.776 69.04 505.416 70.576 506.312 71.664C507.208 72.688 507.944 73.328 508.52 73.584C509.16 73.072 509.8 72.592 510.44 72.144C511.08 71.696 511.656 71.152 512.168 70.512C516.52 65.136 519.912 58.096 522.344 49.392C524.776 40.688 525.672 32.624 525.032 25.2C522.536 28.4 519.912 32.08 517.16 36.24C514.408 40.4 512.232 43.952 510.632 46.896C506.984 53.744 504.872 59.92 504.296 65.424ZM582.697 7.92C583.337 9.648 583.689 10.8 583.753 11.376C583.881 12.592 583.433 13.616 582.409 14.448C582.409 14.512 582.345 14.608 582.217 14.736C582.793 17.744 582.921 20.56 582.601 23.184C582.281 25.808 581.865 28.336 581.353 30.768C584.809 24.88 587.561 20.56 589.609 17.808C593.833 12.112 597.769 8.048 601.417 5.616C602.633 4.912 604.105 4.4 605.833 4.08C607.625 3.696 609.321 3.632 610.921 3.888C612.521 4.144 613.833 4.784 614.857 5.808C615.945 6.832 616.425 8.36799 616.297 10.416C614.505 22.896 612.585 34.544 610.537 45.36C608.489 56.112 605.833 66.384 602.569 76.176V76.368H602.473C601.705 78.672 599.785 80.304 596.713 81.264C593.705 82.16 591.017 82.224 588.649 81.456C585.769 80.624 584.457 79.088 584.713 76.848L584.809 74.64V74.448C585.065 72.912 585.193 71.888 585.193 71.376C585.257 70.8 585.321 70.384 585.385 70.128C585.513 68.464 585.769 66.928 586.153 65.52C586.601 64.048 586.921 62.864 587.113 61.968C587.305 61.072 587.497 60.24 587.689 59.472C587.881 58.64 588.009 58 588.073 57.552C585.641 60.88 583.913 62.896 582.889 63.6C580.329 65.392 577.353 66.224 573.961 66.096C571.849 65.968 570.633 65.488 570.313 64.656C569.673 62.864 569.225 61.808 568.969 61.488C568.585 60.976 568.265 60.112 568.009 58.896C566.345 66.256 564.713 71.472 563.113 74.544C562.473 75.76 561.833 76.848 561.193 77.808C560.297 79.92 558.249 81.392 555.049 82.224C552.041 83.056 549.161 82.992 546.409 82.032C543.593 81.136 542.249 79.536 542.377 77.232C542.505 74.928 542.985 72.048 543.817 68.592C544.585 65.072 545.513 61.36 546.601 57.456C549.865 45.104 552.169 37.072 553.513 33.36C554.921 29.648 556.105 26.736 557.065 24.624C559.369 19.696 561.417 16.112 563.209 13.872C565.193 9.84 568.489 7.408 573.097 6.576C576.745 5.872 579.945 6.32 582.697 7.92ZM649.072 7.92C649.712 9.648 650.064 10.8 650.128 11.376C650.256 12.592 649.808 13.616 648.784 14.448C648.784 14.512 648.72 14.608 648.592 14.736C649.168 17.744 649.296 20.56 648.976 23.184C648.656 25.808 648.24 28.336 647.728 30.768C651.184 24.88 653.936 20.56 655.984 17.808C660.208 12.112 664.144 8.048 667.792 5.616C669.008 4.912 670.48 4.4 672.208 4.08C674 3.696 675.696 3.632 677.296 3.888C678.896 4.144 680.208 4.784 681.232 5.808C682.32 6.832 682.8 8.36799 682.672 10.416C680.88 22.896 678.96 34.544 676.912 45.36C674.864 56.112 672.208 66.384 668.944 76.176V76.368H668.848C668.08 78.672 666.16 80.304 663.088 81.264C660.08 82.16 657.392 82.224 655.024 81.456C652.144 80.624 650.832 79.088 651.088 76.848L651.184 74.64V74.448C651.44 72.912 651.568 71.888 651.568 71.376C651.632 70.8 651.696 70.384 651.76 70.128C651.888 68.464 652.144 66.928 652.528 65.52C652.976 64.048 653.296 62.864 653.488 61.968C653.68 61.072 653.872 60.24 654.064 59.472C654.256 58.64 654.384 58 654.448 57.552C652.016 60.88 650.288 62.896 649.264 63.6C646.704 65.392 643.728 66.224 640.336 66.096C638.224 65.968 637.008 65.488 636.688 64.656C636.048 62.864 635.6 61.808 635.344 61.488C634.96 60.976 634.64 60.112 634.384 58.896C632.72 66.256 631.088 71.472 629.488 74.544C628.848 75.76 628.208 76.848 627.568 77.808C626.672 79.92 624.624 81.392 621.424 82.224C618.416 83.056 615.536 82.992 612.784 82.032C609.968 81.136 608.624 79.536 608.752 77.232C608.88 74.928 609.36 72.048 610.192 68.592C610.96 65.072 611.888 61.36 612.976 57.456C616.24 45.104 618.544 37.072 619.888 33.36C621.296 29.648 622.48 26.736 623.44 24.624C625.744 19.696 627.792 16.112 629.584 13.872C631.568 9.84 634.864 7.408 639.472 6.576C643.12 5.872 646.32 6.32 649.072 7.92ZM710.647 8.496V8.68799C710.647 8.752 710.647 8.784 710.647 8.784C710.711 8.784 710.743 8.816 710.743 8.88V9.07199H710.839L711.415 10.608C712.055 12.464 710.391 18.224 706.423 27.888C702.199 38.192 700.247 46.224 700.567 51.984C701.271 56.08 704.695 52.784 710.839 42.096C715.703 33.776 720.407 24.656 724.951 14.736C725.527 13.392 726.135 12.016 726.775 10.608C727.415 9.136 728.215 7.92 729.175 6.96C731.287 4.656 733.847 4.048 736.855 5.13599C737.879 3.91999 739.063 3.088 740.407 2.64C741.815 2.192 743.127 2.09599 744.343 2.352C745.623 2.608 746.711 3.216 747.607 4.17599C748.503 5.07199 748.983 6.288 749.047 7.824C749.239 9.104 748.567 12.144 747.031 16.944C745.559 21.744 744.183 26.128 742.903 30.096C741.623 34.064 740.311 38.384 738.967 43.056C735.703 54.128 733.111 64.56 731.191 74.352C731.127 76.4 730.231 78.096 728.503 79.44C726.839 80.784 724.951 81.648 722.839 82.032C720.791 82.48 718.839 82.416 716.983 81.84C714.743 81.2 713.559 79.6 713.431 77.04C713.431 76.336 713.399 75.632 713.335 74.928C713.463 77.104 711.895 78.96 708.631 80.496C707.735 80.944 706.903 81.36 706.135 81.744C701.655 83.088 696.951 82.8 692.023 80.88C689.719 79.92 687.639 78.64 685.783 77.04C683.991 75.376 682.743 73.424 682.039 71.184C679.799 64.016 680.215 54.608 683.287 42.96C684.567 37.968 686.135 33.104 687.991 28.368C689.847 23.632 691.191 20.208 692.023 18.096C692.919 15.984 693.559 14.544 693.943 13.776C694.327 12.944 694.743 12.144 695.191 11.376C696.279 9.2 697.207 7.728 697.975 6.96L699.127 5.904C699.255 5.776 699.383 5.712 699.511 5.712C699.639 5.648 699.799 5.552 699.991 5.424C700.503 5.104 701.047 4.88 701.623 4.752L702.967 4.464H703.543C705.399 4.208 706.999 4.592 708.343 5.616C708.343 5.68 708.407 5.712 708.535 5.712L709.303 6.384L709.591 6.672L709.879 7.056C709.879 7.12 709.879 7.152 709.879 7.152C709.943 7.152 709.975 7.184 709.975 7.248L710.071 7.34399V7.536C710.135 7.536 710.167 7.568 710.167 7.632V7.72799C710.231 7.792 710.295 7.824 710.359 7.824V7.92C710.359 7.984 710.359 8.016 710.359 8.016C710.423 8.016 710.455 8.048 710.455 8.112C710.455 8.112 710.487 8.144 710.551 8.20799V8.304C710.551 8.368 710.583 8.432 710.647 8.496ZM713.239 72.432V72.144C713.175 72.208 713.143 72.464 713.143 72.912C713.143 72.72 713.175 72.592 713.239 72.528V72.432ZM749.966 40.752C751.246 36.464 752.27 33.168 753.038 30.864C753.87 28.496 754.67 26.384 755.438 24.528C756.206 22.672 757.07 20.88 758.03 19.152C759.054 17.424 760.142 15.856 761.294 14.448C762.51 12.976 763.79 11.824 765.134 10.992C766.478 10.16 767.886 9.744 769.358 9.744C770.83 9.744 772.366 10.32 773.966 11.472C776.526 17.872 778.094 22.16 778.67 24.336C779.438 27.536 780.142 32.048 780.782 37.872C781.358 36.4 781.998 34.864 782.702 33.264C783.47 31.6 784.206 29.936 784.91 28.272C786.894 24.048 788.142 20.848 788.654 18.672C790.062 14.192 792.974 10.832 797.39 8.592C801.23 6.672 804.814 6.064 808.142 6.768C809.486 7.024 810.414 7.568 810.926 8.4C811.502 9.232 811.502 10.096 810.926 10.992C810.414 11.888 810.222 12.752 810.35 13.584C810.542 14.352 810.702 15.28 810.83 16.368C811.022 19.312 810.51 21.936 809.294 24.24C808.078 26.48 806.83 29.296 805.55 32.688C804.27 36.016 802.958 39.568 801.614 43.344C800.334 47.12 799.022 50.96 797.677 54.864C796.334 58.768 795.022 62.32 793.742 65.52C790.926 72.88 788.622 76.944 786.83 77.712C784.398 79.184 782.606 80.048 781.454 80.304C779.982 80.56 777.902 80.56 775.214 80.304C773.55 80.176 772.11 78.032 770.894 73.872C770.19 71.632 769.55 68.528 768.974 64.56C767.95 57.648 767.246 53.84 766.862 53.136C764.302 61.456 762.478 66.704 761.39 68.88C760.366 71.056 759.566 72.496 758.99 73.2C758.478 73.904 757.838 74.832 757.07 75.984C756.238 78.288 754.254 79.984 751.118 81.072C748.43 82.096 745.998 82.256 743.822 81.552C741.454 80.784 740.749 79.312 741.709 77.136C742.413 69.456 745.166 57.328 749.966 40.752ZM844.514 13.104C842.274 20.08 840.194 26.384 838.274 32.016C836.418 37.648 834.69 42.832 833.09 47.568C831.554 52.304 830.114 56.688 828.77 60.72C827.426 64.688 826.178 68.496 825.026 72.144C824.386 76.368 822.306 79.344 818.786 81.072C816.738 82.032 814.306 82.512 811.49 82.512C808.674 82.512 806.562 82.192 805.154 81.552C803.746 80.976 802.85 80.112 802.466 78.96C802.018 77.808 802.018 76.432 802.466 74.832C802.85 73.168 803.554 70.928 804.578 68.112C805.602 65.232 806.882 61.36 808.418 56.496C810.018 51.632 811.682 46.704 813.41 41.712C817.698 29.232 821.09 20.592 823.586 15.792C824.546 14 825.506 12.816 826.466 12.24C827.426 11.6 828.354 11.152 829.25 10.896C830.146 10.576 830.978 10.224 831.746 9.84C832.514 9.456 833.186 8.496 833.762 6.96C834.402 5.424 835.522 4.36799 837.122 3.79199C838.786 3.21599 840.322 3.18399 841.73 3.696C843.202 4.144 844.29 5.168 844.994 6.768C845.762 8.304 845.602 10.416 844.514 13.104ZM872.564 53.424C870.836 58.416 869.076 63.216 867.284 67.824C865.492 72.432 863.988 75.92 862.772 78.288C861.62 80.72 860.596 82.384 859.7 83.28C858.804 84.176 857.876 84.784 856.916 85.104C856.02 85.424 855.092 85.552 854.132 85.488C853.236 85.424 852.308 85.36 851.348 85.296C845.972 84.464 844.308 80.592 846.356 73.68C847.7 68.176 848.788 63.696 849.62 60.24C850.452 56.72 851.124 53.84 851.636 51.6C852.212 49.296 852.692 47.408 853.076 45.936C853.46 44.4 853.876 42.896 854.324 41.424C854.772 39.952 855.316 38.288 855.956 36.432C856.66 34.576 857.556 32.112 858.644 29.04C856.212 29.36 854.036 29.104 852.116 28.272C849.3 27.056 848.148 24.432 848.66 20.4C848.916 18.544 849.908 16.816 851.636 15.216C852.532 14.384 853.588 13.488 854.804 12.528C857.3 10.544 862.26 8.432 869.684 6.192C877.364 3.888 883.956 2.8 889.46 2.92799C890.932 2.672 892.436 2.864 893.972 3.504C895.572 4.08 896.852 4.88 897.812 5.904C898.772 6.928 899.252 8.048 899.252 9.264C899.316 10.48 898.548 11.568 896.948 12.528C896.18 13.04 895.636 13.904 895.316 15.12C894.996 16.272 894.644 17.52 894.26 18.864C893.876 20.144 893.3 21.328 892.532 22.416C891.828 23.504 890.676 24.144 889.076 24.336C888.244 24.784 887.06 25.104 885.524 25.296C884.052 25.488 883.06 25.648 882.548 25.776C882.1 25.84 881.844 26 881.78 26.256C880.628 29.648 879.252 33.776 877.652 38.64C876.052 43.44 874.356 48.368 872.564 53.424ZM859.604 27.984C859.476 27.984 859.412 28.016 859.412 28.08C859.412 28.08 859.476 28.08 859.604 28.08V27.984ZM898.864 41.616C897.776 32.336 897.328 24.784 897.52 18.96C897.392 16.208 898.512 13.584 900.88 11.088C903.12 8.72 905.456 7.408 907.888 7.152C910.576 6.96 912.304 8.46399 913.072 11.664C913.584 13.456 914.224 15.536 914.992 17.904C915.76 20.272 916.496 22.768 917.2 25.392C917.904 24.432 919.024 22.736 920.56 20.304C922.096 17.872 923.536 15.696 924.88 13.776C928.144 9.104 931.024 5.84 933.52 3.984C935.952 3.024 938.032 2.768 939.76 3.216C941.552 3.59999 942.832 4.23999 943.6 5.13599C944.432 6.03199 944.752 7.34399 944.56 9.07199C944.432 13.104 941.36 19.44 935.344 28.08C933.936 30.064 932.496 32.368 931.024 34.992C929.616 37.616 927.952 40.56 926.032 43.824C924.176 47.024 922.384 50.224 920.656 53.424C916.688 60.656 913.584 67.536 911.344 74.064C911.408 73.936 911.664 74.096 912.112 74.544C912.56 74.928 912.976 75.504 913.36 76.272C914.384 78.192 914.288 79.792 913.072 81.072C910 84.272 906.192 86.064 901.648 86.448C897.488 86.768 893.904 86 890.896 84.144C887.888 82.416 886.896 80.272 887.92 77.712H887.632C889.04 74.064 890.64 70.64 892.432 67.44C894.224 64.176 896.08 60.816 898 57.36L902.32 49.68C901.232 49.936 900.336 49.168 899.632 47.376C899.12 45.904 898.864 43.984 898.864 41.616ZM22.488 134.448C26.52 129.84 31 126.96 35.928 125.808C39.32 124.976 42.52 125.104 45.528 126.192C47.896 123.696 50.968 122.8 54.744 123.504C58.2 124.144 61.144 126.096 63.576 129.36C63.704 129.808 63.96 130.48 64.344 131.376C64.792 132.272 65.208 133.264 65.592 134.352C68.408 140.88 68.632 149.456 66.264 160.08C63.32 173.264 58.104 184.432 50.616 193.584C48.312 196.4 45.72 198.736 42.84 200.592C38.232 204.112 32.728 205.68 26.328 205.296C22.36 205.104 19.032 204.112 16.344 202.32C5.656 197.008 2.168 185.936 5.88 169.104C8.952 155.28 14.488 143.728 22.488 134.448ZM23.64 185.424L23.544 186L23.736 187.056C24.12 189.04 24.76 190.576 25.656 191.664C26.552 192.688 27.288 193.328 27.864 193.584C28.504 193.072 29.144 192.592 29.784 192.144C30.424 191.696 31 191.152 31.512 190.512C35.864 185.136 39.256 178.096 41.688 169.392C44.12 160.688 45.016 152.624 44.376 145.2C41.88 148.4 39.256 152.08 36.504 156.24C33.752 160.4 31.576 163.952 29.976 166.896C26.328 173.744 24.216 179.92 23.64 185.424ZM78.5205 197.136C77.6885 200.144 75.5765 202.16 72.1845 203.184C69.1125 204.08 66.3605 203.76 63.9285 202.224C61.3045 200.624 60.4725 198.256 61.4325 195.12C62.2645 191.536 63.8645 185.808 66.2325 177.936C68.6005 170.064 70.2645 164.528 71.2245 161.328C73.4645 153.392 74.8725 148.144 75.4485 145.584C77.4325 139.184 78.8405 135.216 79.6725 133.68C80.5685 132.144 81.3365 131.088 81.9765 130.512C82.6165 129.872 83.6405 129.136 85.0485 128.304C86.5205 127.472 88.0885 126.832 89.7525 126.384C91.4165 125.936 93.0805 125.648 94.7445 125.52C96.4085 125.328 98.1045 125.2 99.8325 125.136C101.561 125.008 103.481 124.688 105.593 124.176C106.425 124.176 107.161 124.112 107.801 123.984C108.505 123.856 109.177 123.76 109.817 123.696C111.289 123.568 112.729 123.728 114.137 124.176C115.609 124.624 116.697 125.424 117.401 126.576C118.169 127.728 118.552 129.04 118.552 130.512C118.552 131.984 118.233 133.552 117.593 135.216C117.017 136.88 116.185 138.48 115.097 140.016C112.729 143.344 109.753 145.712 106.169 147.12C103.673 147.888 101.881 148.272 100.793 148.272C99.7045 148.272 98.9365 148.144 98.4885 147.888C98.1045 147.632 97.8805 147.44 97.8165 147.312C97.7525 147.184 97.5285 147.408 97.1445 147.984C96.5685 148.816 96.1525 149.744 95.8965 150.768C95.6405 151.792 95.3525 152.56 95.0325 153.072C94.7125 153.52 94.2645 154.448 93.6885 155.856C93.1765 157.264 92.5045 158.448 91.6725 159.408C90.8405 160.304 90.3605 160.848 90.2325 161.04L98.6805 160.176C100.025 160.048 101.177 160.336 102.137 161.04C103.161 161.68 103.865 162.48 104.249 163.44C104.697 164.4 104.825 165.36 104.633 166.32C104.441 167.216 103.865 167.92 102.905 168.432C101.945 168.88 101.305 169.36 100.985 169.872C100.729 170.32 100.505 170.768 100.313 171.216C100.121 171.664 99.8645 172.112 99.5445 172.56C99.2885 173.008 98.6805 173.424 97.7205 173.808C95.6725 174.768 91.7365 175.536 85.9125 176.112C85.5925 177.072 85.1445 178.224 84.5685 179.568C84.0565 180.848 83.5125 182.192 82.9365 183.6C81.2725 187.888 80.3125 190.48 80.0565 191.376C79.8645 192.272 79.7045 193.008 79.5765 193.584C79.1925 195.312 78.8405 196.496 78.5205 197.136ZM168.314 173.424C166.586 178.416 164.826 183.216 163.034 187.824C161.242 192.432 159.738 195.92 158.522 198.288C157.37 200.72 156.346 202.384 155.45 203.28C154.554 204.176 153.626 204.784 152.666 205.104C151.77 205.424 150.842 205.552 149.882 205.488C148.986 205.424 148.058 205.36 147.098 205.296C141.722 204.464 140.058 200.592 142.106 193.68C143.45 188.176 144.538 183.696 145.37 180.24C146.202 176.72 146.874 173.84 147.386 171.6C147.962 169.296 148.442 167.408 148.826 165.936C149.21 164.4 149.626 162.896 150.074 161.424C150.522 159.952 151.066 158.288 151.706 156.432C152.41 154.576 153.306 152.112 154.394 149.04C151.962 149.36 149.786 149.104 147.866 148.272C145.05 147.056 143.898 144.432 144.41 140.4C144.666 138.544 145.658 136.816 147.386 135.216C148.282 134.384 149.338 133.488 150.554 132.528C153.05 130.544 158.01 128.432 165.434 126.192C173.114 123.888 179.706 122.8 185.21 122.928C186.682 122.672 188.186 122.864 189.722 123.504C191.322 124.08 192.602 124.88 193.562 125.904C194.522 126.928 195.002 128.048 195.002 129.264C195.066 130.48 194.298 131.568 192.698 132.528C191.93 133.04 191.386 133.904 191.066 135.12C190.746 136.272 190.394 137.52 190.01 138.864C189.626 140.144 189.05 141.328 188.282 142.416C187.578 143.504 186.426 144.144 184.826 144.336C183.994 144.784 182.81 145.104 181.274 145.296C179.802 145.488 178.81 145.648 178.298 145.776C177.85 145.84 177.594 146 177.53 146.256C176.378 149.648 175.002 153.776 173.402 158.64C171.802 163.44 170.106 168.368 168.314 173.424ZM155.354 147.984C155.226 147.984 155.162 148.016 155.162 148.08C155.162 148.08 155.226 148.08 155.354 148.08V147.984ZM206.038 177.072L201.43 188.784C200.79 190.576 200.214 192.432 199.702 194.352C199.19 196.272 198.646 197.936 198.07 199.344C197.494 200.816 196.598 201.968 195.382 202.8C194.23 203.632 192.918 204.24 191.446 204.624C189.974 205.072 188.438 205.264 186.838 205.2C185.302 205.136 183.926 204.848 182.71 204.336C179.958 203.056 178.998 200.944 179.83 198C182.774 185.072 185.526 174.704 188.086 166.896C190.71 159.088 192.854 152.944 194.518 148.464C196.246 143.984 198.038 139.248 199.894 134.256C200.086 132.4 200.854 130.736 202.198 129.264C203.542 127.792 205.11 126.576 206.902 125.616C208.758 124.656 210.678 123.984 212.662 123.6C214.646 123.152 216.406 123.088 217.942 123.408C219.478 123.728 220.598 124.432 221.302 125.52C222.07 126.608 222.134 128.176 221.494 130.224C219.19 136.112 217.558 140.272 216.598 142.704C215.638 145.136 214.774 147.312 214.006 149.232L211.318 155.568C212.662 155.632 214.358 155.44 216.406 154.992C220.118 154.16 222.806 153.872 224.47 154.128C224.47 153.808 224.63 153.264 224.95 152.496C226.742 144.688 228.758 137.52 230.998 130.992C232.598 125.616 236.726 122.8 243.382 122.544C246.006 122.544 247.99 123.184 249.334 124.464C250.806 125.808 250.998 127.632 249.91 129.936C244.022 146.448 239.862 159.472 237.43 169.008C234.678 180.016 232.854 187.44 231.958 191.28C231.126 195.12 230.39 197.392 229.75 198.096C229.11 198.8 228.438 199.28 227.734 199.536C227.094 199.856 226.454 200.144 225.814 200.4C225.174 200.656 224.662 201.296 224.278 202.32H223.99C223.478 203.472 222.358 204.368 220.63 205.008C218.902 205.648 217.142 205.872 215.35 205.68C213.622 205.552 212.15 204.912 210.934 203.76C209.782 202.672 209.494 200.976 210.07 198.672C210.71 195.024 211.766 191.12 213.238 186.96C214.71 182.736 215.862 179.44 216.694 177.072C217.59 174.704 218.326 172.496 218.902 170.448C218.39 170.704 217.878 170.896 217.366 171.024C216.918 171.152 216.342 171.408 215.638 171.792C214.934 172.112 214.198 172.4 213.43 172.656C212.726 172.912 212.022 173.168 211.318 173.424C209.526 174.128 208.054 174.832 206.902 175.536L206.038 177.072ZM216.886 170.64C216.95 170.64 217.27 170.544 217.846 170.352C217.462 170.48 217.142 170.576 216.886 170.64ZM261.227 185.904C264.939 186.288 267.691 186.48 269.483 186.48C271.339 186.48 274.123 186.224 277.835 185.712C278.987 186.096 279.659 186.576 279.851 187.152C280.043 187.728 280.107 188.336 280.043 188.976C279.979 189.552 280.011 190.128 280.139 190.704C280.267 191.28 280.875 191.76 281.963 192.144C282.539 192.336 282.699 192.912 282.443 193.872C282.251 194.768 281.739 195.76 280.907 196.848C278.795 199.6 276.299 201.52 273.419 202.608C268.811 203.76 265.195 204.432 262.571 204.624C258.219 204.944 253.483 204.784 248.363 204.144C242.731 203.12 240.011 200.784 240.203 197.136C240.203 183.696 243.147 170.192 249.035 156.624C250.955 152.208 253.131 147.568 255.563 142.704C256.075 141.68 256.363 140.528 256.427 139.248C256.555 137.968 256.651 136.72 256.715 135.504C256.779 134.288 256.971 133.2 257.291 132.24C257.611 131.28 258.283 130.608 259.307 130.224C272.619 124.912 283.147 122.864 290.891 124.08C293.579 124.144 295.339 125.072 296.171 126.864C297.067 128.592 297.163 130.544 296.459 132.72C295.819 134.896 294.507 136.944 292.523 138.864C290.603 140.784 288.171 141.968 285.227 142.416C281.451 143.504 279.147 144.24 278.315 144.624C276.715 145.392 275.563 146.416 274.859 147.696C273.963 149.104 273.131 150.448 272.363 151.728C271.595 153.008 271.051 154.384 270.731 155.856L270.347 157.968C271.563 158.544 273.035 158.736 274.763 158.544C276.555 158.288 278.187 158.064 279.659 157.872C281.195 157.616 282.411 157.584 283.307 157.776C284.267 157.968 284.459 158.928 283.883 160.656C283.371 162.32 282.379 164.208 280.907 166.32C279.499 168.432 277.483 169.968 274.859 170.928C273.195 171.248 272.043 171.504 271.403 171.696C270.827 171.824 270.379 171.92 270.059 171.984C269.611 172.048 268.331 172.144 266.219 172.272C263.211 177.392 261.387 181.36 260.747 184.176C260.491 185.328 260.651 185.904 261.227 185.904ZM362.885 150.192C362.885 148.272 362.213 147.312 360.869 147.312C360.357 147.312 359.749 147.44 359.045 147.696C358.341 147.952 357.669 148.176 357.029 148.368C354.661 149.648 352.805 151.056 351.461 152.592C350.181 154.064 348.869 155.728 347.525 157.584C346.181 159.44 345.029 161.424 344.069 163.536C343.109 165.648 342.373 167.632 341.861 169.488C340.005 176.336 340.709 180.944 343.973 183.312C345.317 184.272 346.725 184.752 348.197 184.752C349.733 184.688 350.949 184.368 351.845 183.792C352.805 183.216 353.733 182.672 354.629 182.16C355.525 181.648 356.549 181.296 357.701 181.104C358.917 180.848 360.389 181.008 362.117 181.584C363.909 182.096 364.869 182.8 364.997 183.696C365.125 184.592 365.125 185.52 364.997 186.48C364.869 187.44 364.837 188.304 364.901 189.072C365.029 189.84 365.733 190.32 367.013 190.512C368.229 192.048 367.461 193.904 364.709 196.08C364.005 196.656 363.333 197.2 362.693 197.712C357.189 201.232 351.333 203.184 345.125 203.568C341.221 203.824 337.061 203.12 332.645 201.456C326.053 198.96 322.341 193.36 321.509 184.656C320.421 176.592 321.445 168.24 324.581 159.6C327.205 152.304 331.173 145.552 336.485 139.344C341.285 133.648 346.021 129.936 350.693 128.208C356.261 125.328 362.277 124.208 368.741 124.848C375.589 125.744 380.069 128.656 382.181 133.584C384.293 138.512 383.941 144.432 381.125 151.344C380.165 153.776 378.341 155.696 375.653 157.104C373.349 158.384 370.853 159.024 368.165 159.024C365.477 159.024 363.749 158.192 362.981 156.528C362.213 154.8 362.181 152.688 362.885 150.192ZM407.741 128.496V128.688C407.741 128.752 407.741 128.784 407.741 128.784C407.805 128.784 407.837 128.816 407.837 128.88V129.072H407.933L408.509 130.608C409.149 132.464 407.485 138.224 403.517 147.888C399.293 158.192 397.341 166.224 397.661 171.984C398.365 176.08 401.789 172.784 407.933 162.096C412.797 153.776 417.501 144.656 422.045 134.736C422.621 133.392 423.229 132.016 423.869 130.608C424.509 129.136 425.309 127.92 426.269 126.96C428.381 124.656 430.941 124.048 433.949 125.136C434.973 123.92 436.157 123.088 437.501 122.64C438.909 122.192 440.221 122.096 441.437 122.352C442.717 122.608 443.805 123.216 444.701 124.176C445.597 125.072 446.077 126.288 446.141 127.824C446.333 129.104 445.661 132.144 444.125 136.944C442.653 141.744 441.277 146.128 439.997 150.096C438.717 154.064 437.405 158.384 436.061 163.056C432.797 174.128 430.205 184.56 428.285 194.352C428.221 196.4 427.325 198.096 425.597 199.44C423.933 200.784 422.045 201.648 419.933 202.032C417.885 202.48 415.933 202.416 414.077 201.84C411.837 201.2 410.653 199.6 410.525 197.04C410.525 196.336 410.493 195.632 410.429 194.928C410.557 197.104 408.989 198.96 405.725 200.496C404.829 200.944 403.997 201.36 403.229 201.744C398.749 203.088 394.045 202.8 389.117 200.88C386.813 199.92 384.733 198.64 382.877 197.04C381.085 195.376 379.837 193.424 379.133 191.184C376.893 184.016 377.309 174.608 380.381 162.96C381.661 157.968 383.229 153.104 385.085 148.368C386.941 143.632 388.285 140.208 389.117 138.096C390.013 135.984 390.653 134.544 391.037 133.776C391.421 132.944 391.837 132.144 392.285 131.376C393.373 129.2 394.301 127.728 395.069 126.96L396.221 125.904C396.349 125.776 396.477 125.712 396.605 125.712C396.733 125.648 396.893 125.552 397.085 125.424C397.597 125.104 398.141 124.88 398.717 124.752L400.061 124.464H400.637C402.493 124.208 404.093 124.592 405.437 125.616C405.437 125.68 405.501 125.712 405.629 125.712L406.397 126.384L406.685 126.672L406.973 127.056C406.973 127.12 406.973 127.152 406.973 127.152C407.037 127.152 407.069 127.184 407.069 127.248L407.165 127.344V127.536C407.229 127.536 407.261 127.568 407.261 127.632V127.728C407.325 127.792 407.389 127.824 407.453 127.824V127.92C407.453 127.984 407.453 128.016 407.453 128.016C407.517 128.016 407.549 128.048 407.549 128.112C407.549 128.112 407.581 128.144 407.645 128.208V128.304C407.645 128.368 407.677 128.432 407.741 128.496ZM410.333 192.432V192.144C410.269 192.208 410.237 192.464 410.237 192.912C410.237 192.72 410.269 192.592 410.333 192.528V192.432ZM473.939 173.424C472.211 178.416 470.451 183.216 468.659 187.824C466.867 192.432 465.363 195.92 464.147 198.288C462.995 200.72 461.971 202.384 461.075 203.28C460.179 204.176 459.251 204.784 458.291 205.104C457.395 205.424 456.467 205.552 455.507 205.488C454.611 205.424 453.683 205.36 452.723 205.296C447.347 204.464 445.683 200.592 447.731 193.68C449.075 188.176 450.163 183.696 450.995 180.24C451.827 176.72 452.499 173.84 453.011 171.6C453.587 169.296 454.067 167.408 454.451 165.936C454.835 164.4 455.251 162.896 455.699 161.424C456.147 159.952 456.691 158.288 457.331 156.432C458.035 154.576 458.931 152.112 460.019 149.04C457.587 149.36 455.411 149.104 453.491 148.272C450.675 147.056 449.523 144.432 450.035 140.4C450.291 138.544 451.283 136.816 453.011 135.216C453.907 134.384 454.963 133.488 456.179 132.528C458.675 130.544 463.635 128.432 471.059 126.192C478.739 123.888 485.331 122.8 490.835 122.928C492.307 122.672 493.811 122.864 495.347 123.504C496.947 124.08 498.227 124.88 499.187 125.904C500.147 126.928 500.627 128.048 500.627 129.264C500.691 130.48 499.923 131.568 498.323 132.528C497.555 133.04 497.011 133.904 496.691 135.12C496.371 136.272 496.019 137.52 495.635 138.864C495.251 140.144 494.675 141.328 493.907 142.416C493.203 143.504 492.051 144.144 490.451 144.336C489.619 144.784 488.435 145.104 486.899 145.296C485.427 145.488 484.435 145.648 483.923 145.776C483.475 145.84 483.219 146 483.155 146.256C482.003 149.648 480.627 153.776 479.027 158.64C477.427 163.44 475.731 168.368 473.939 173.424ZM460.979 147.984C460.851 147.984 460.787 148.016 460.787 148.08C460.787 148.08 460.851 148.08 460.979 148.08V147.984ZM510.415 185.904C514.127 186.288 516.879 186.48 518.671 186.48C520.527 186.48 523.311 186.224 527.023 185.712C528.175 186.096 528.847 186.576 529.039 187.152C529.231 187.728 529.295 188.336 529.231 188.976C529.167 189.552 529.199 190.128 529.327 190.704C529.455 191.28 530.063 191.76 531.151 192.144C531.727 192.336 531.887 192.912 531.631 193.872C531.439 194.768 530.927 195.76 530.095 196.848C527.983 199.6 525.487 201.52 522.607 202.608C517.999 203.76 514.383 204.432 511.759 204.624C507.407 204.944 502.671 204.784 497.551 204.144C491.919 203.12 489.199 200.784 489.391 197.136C489.391 183.696 492.335 170.192 498.223 156.624C500.143 152.208 502.319 147.568 504.751 142.704C505.263 141.68 505.551 140.528 505.615 139.248C505.743 137.968 505.839 136.72 505.903 135.504C505.967 134.288 506.159 133.2 506.479 132.24C506.799 131.28 507.471 130.608 508.495 130.224C521.807 124.912 532.335 122.864 540.079 124.08C542.767 124.144 544.527 125.072 545.359 126.864C546.255 128.592 546.351 130.544 545.647 132.72C545.007 134.896 543.695 136.944 541.711 138.864C539.791 140.784 537.359 141.968 534.415 142.416C530.639 143.504 528.335 144.24 527.503 144.624C525.903 145.392 524.751 146.416 524.047 147.696C523.151 149.104 522.319 150.448 521.551 151.728C520.783 153.008 520.239 154.384 519.919 155.856L519.535 157.968C520.751 158.544 522.223 158.736 523.951 158.544C525.743 158.288 527.375 158.064 528.847 157.872C530.383 157.616 531.599 157.584 532.495 157.776C533.455 157.968 533.647 158.928 533.071 160.656C532.559 162.32 531.567 164.208 530.095 166.32C528.687 168.432 526.671 169.968 524.047 170.928C522.383 171.248 521.231 171.504 520.591 171.696C520.015 171.824 519.567 171.92 519.247 171.984C518.799 172.048 517.519 172.144 515.407 172.272C512.399 177.392 510.575 181.36 509.935 184.176C509.679 185.328 509.839 185.904 510.415 185.904ZM554.999 203.568C551.735 203.696 548.727 203.28 545.975 202.32C543.287 201.424 541.079 200.176 539.351 198.576C537.686 196.976 536.63 195.12 536.182 193.008C535.734 190.832 536.118 188.624 537.334 186.384C538.998 183.696 542.327 182.896 547.319 183.984C551.095 184.752 553.687 185.168 555.095 185.232C556.567 185.296 557.815 185.104 558.839 184.656C563.511 183.12 566.135 181.456 566.711 179.664C567.095 178.32 566.263 176.752 564.215 174.96C563.383 174.192 562.455 173.424 561.431 172.656C560.407 171.888 559.543 171.12 558.839 170.352C555.639 167.984 553.111 165.264 551.255 162.192C549.463 159.056 548.727 155.664 549.047 152.016C549.367 148.368 549.975 145.36 550.871 142.992C551.767 140.56 552.887 138.416 554.231 136.56C556.599 133.296 559.671 130.64 563.447 128.592C567.799 126.352 571.287 124.912 573.911 124.272C579.095 123.12 584.343 123.024 589.655 123.984C591.447 124.304 592.983 124.912 594.263 125.808C595.543 126.704 596.823 127.632 598.103 128.592C600.343 130.832 600.887 133.104 599.735 135.408C599.287 136.432 598.583 137.264 597.623 137.904C596.663 138.544 595.639 138.896 594.551 138.96C594.679 140.688 594.359 141.968 593.591 142.8C592.119 144.272 589.559 145.232 585.911 145.68C580.663 145.296 577.111 145.584 575.255 146.544C573.079 147.696 572.279 150.192 572.855 154.032C572.983 154.864 573.495 155.728 574.391 156.624C575.351 157.52 576.439 158.48 577.655 159.504C578.935 160.528 580.247 161.68 581.591 162.96C582.999 164.24 584.215 165.712 585.239 167.376C588.823 173.264 588.535 180.144 584.375 188.016C581.303 193.904 576.055 198.32 568.631 201.264C564.791 202.8 560.247 203.568 554.999 203.568ZM625.439 173.424C623.711 178.416 621.951 183.216 620.159 187.824C618.367 192.432 616.863 195.92 615.647 198.288C614.495 200.72 613.471 202.384 612.575 203.28C611.679 204.176 610.751 204.784 609.791 205.104C608.895 205.424 607.967 205.552 607.007 205.488C606.111 205.424 605.183 205.36 604.223 205.296C598.847 204.464 597.183 200.592 599.231 193.68C600.575 188.176 601.663 183.696 602.495 180.24C603.327 176.72 603.999 173.84 604.511 171.6C605.087 169.296 605.567 167.408 605.951 165.936C606.335 164.4 606.751 162.896 607.199 161.424C607.647 159.952 608.191 158.288 608.831 156.432C609.535 154.576 610.431 152.112 611.519 149.04C609.087 149.36 606.911 149.104 604.991 148.272C602.175 147.056 601.023 144.432 601.535 140.4C601.791 138.544 602.783 136.816 604.511 135.216C605.407 134.384 606.463 133.488 607.679 132.528C610.175 130.544 615.135 128.432 622.559 126.192C630.239 123.888 636.831 122.8 642.335 122.928C643.807 122.672 645.311 122.864 646.847 123.504C648.447 124.08 649.727 124.88 650.687 125.904C651.647 126.928 652.127 128.048 652.127 129.264C652.191 130.48 651.423 131.568 649.823 132.528C649.055 133.04 648.511 133.904 648.191 135.12C647.871 136.272 647.519 137.52 647.135 138.864C646.751 140.144 646.175 141.328 645.407 142.416C644.703 143.504 643.551 144.144 641.951 144.336C641.119 144.784 639.935 145.104 638.399 145.296C636.927 145.488 635.935 145.648 635.423 145.776C634.975 145.84 634.719 146 634.655 146.256C633.503 149.648 632.127 153.776 630.527 158.64C628.927 163.44 627.231 168.368 625.439 173.424ZM612.479 147.984C612.351 147.984 612.287 148.016 612.287 148.08C612.287 148.08 612.351 148.08 612.479 148.08V147.984ZM713.229 150.192C713.229 148.272 712.557 147.312 711.213 147.312C710.701 147.312 710.093 147.44 709.389 147.696C708.685 147.952 708.013 148.176 707.373 148.368C705.005 149.648 703.149 151.056 701.805 152.592C700.525 154.064 699.213 155.728 697.869 157.584C696.525 159.44 695.373 161.424 694.413 163.536C693.453 165.648 692.717 167.632 692.205 169.488C690.349 176.336 691.053 180.944 694.317 183.312C695.661 184.272 697.069 184.752 698.541 184.752C700.077 184.688 701.293 184.368 702.189 183.792C703.149 183.216 704.077 182.672 704.973 182.16C705.869 181.648 706.893 181.296 708.045 181.104C709.261 180.848 710.733 181.008 712.461 181.584C714.253 182.096 715.213 182.8 715.341 183.696C715.469 184.592 715.469 185.52 715.341 186.48C715.213 187.44 715.181 188.304 715.245 189.072C715.373 189.84 716.077 190.32 717.357 190.512C718.573 192.048 717.805 193.904 715.053 196.08C714.349 196.656 713.677 197.2 713.037 197.712C707.533 201.232 701.677 203.184 695.469 203.568C691.565 203.824 687.405 203.12 682.989 201.456C676.397 198.96 672.685 193.36 671.853 184.656C670.765 176.592 671.789 168.24 674.925 159.6C677.549 152.304 681.517 145.552 686.829 139.344C691.629 133.648 696.365 129.936 701.037 128.208C706.605 125.328 712.621 124.208 719.085 124.848C725.933 125.744 730.413 128.656 732.525 133.584C734.637 138.512 734.285 144.432 731.469 151.344C730.509 153.776 728.685 155.696 725.997 157.104C723.693 158.384 721.197 159.024 718.509 159.024C715.821 159.024 714.093 158.192 713.325 156.528C712.557 154.8 712.525 152.688 713.229 150.192ZM778.244 132.912C780.42 134.064 781.796 135.76 782.372 138C781.092 145.168 779.94 152.304 778.916 159.408C777.892 166.448 776.9 172.368 775.94 177.168C774.98 181.904 774.308 185.456 773.924 187.824C773.604 190.192 773.22 192.56 772.772 194.928L772.196 196.944C772.068 197.648 771.94 198.288 771.812 198.864C771.684 199.504 771.556 200.176 771.428 200.88C769.636 202.928 767.204 203.952 764.132 203.952C760.868 203.952 758.276 203.12 756.356 201.456C755.204 200.56 755.012 198.672 755.78 195.792C756.1 194.64 756.292 193.168 756.356 191.376C756.484 189.52 756.612 187.984 756.74 186.768V186.576C754.82 187.28 753.092 188.208 751.556 189.36C750.02 190.448 749.06 191.152 748.676 191.472C748.292 191.728 747.78 191.952 747.14 192.144C746.5 192.272 745.924 192.368 745.412 192.432C744.196 192.496 743.364 192.688 742.916 193.008C739.204 199.664 735.876 203.376 732.932 204.144C731.076 204.72 729.22 204.848 727.364 204.528C725.508 204.272 724.036 203.184 722.948 201.264C720.9 199.344 721.412 194.096 724.484 185.52C726.148 180.976 728.516 175.536 731.588 169.2C734.724 162.8 737.732 157.232 740.612 152.496C746.82 142.32 753.636 133.744 761.06 126.768C762.276 126.256 763.588 125.68 764.996 125.04C766.404 124.336 767.78 123.952 769.124 123.888C770.532 123.824 771.972 123.984 773.444 124.368C774.916 124.752 776.164 125.328 777.188 126.096C779.556 127.888 779.908 130.16 778.244 132.912ZM757.7 158.16C756.356 162 755.012 165.552 753.668 168.816C752.324 172.016 751.172 174.832 750.212 177.264L757.796 176.976C758.308 172.88 758.884 168.816 759.524 164.784C760.164 160.752 760.772 156.72 761.348 152.688L757.7 158.16ZM755.108 177.36C756.004 177.36 756.9 177.296 757.796 177.168V177.072C756.964 177.136 756.196 177.2 755.492 177.264C754.788 177.328 754.66 177.36 755.108 177.36ZM812.752 173.424C811.024 178.416 809.264 183.216 807.472 187.824C805.68 192.432 804.176 195.92 802.96 198.288C801.808 200.72 800.784 202.384 799.888 203.28C798.992 204.176 798.064 204.784 797.104 205.104C796.208 205.424 795.28 205.552 794.32 205.488C793.424 205.424 792.496 205.36 791.536 205.296C786.16 204.464 784.496 200.592 786.544 193.68C787.888 188.176 788.976 183.696 789.808 180.24C790.64 176.72 791.312 173.84 791.824 171.6C792.4 169.296 792.88 167.408 793.264 165.936C793.648 164.4 794.064 162.896 794.512 161.424C794.96 159.952 795.504 158.288 796.144 156.432C796.848 154.576 797.744 152.112 798.832 149.04C796.4 149.36 794.224 149.104 792.304 148.272C789.488 147.056 788.336 144.432 788.848 140.4C789.104 138.544 790.096 136.816 791.824 135.216C792.72 134.384 793.776 133.488 794.992 132.528C797.488 130.544 802.448 128.432 809.872 126.192C817.552 123.888 824.144 122.8 829.648 122.928C831.12 122.672 832.624 122.864 834.16 123.504C835.76 124.08 837.04 124.88 838 125.904C838.96 126.928 839.44 128.048 839.44 129.264C839.504 130.48 838.736 131.568 837.136 132.528C836.368 133.04 835.824 133.904 835.504 135.12C835.184 136.272 834.832 137.52 834.448 138.864C834.064 140.144 833.488 141.328 832.72 142.416C832.016 143.504 830.864 144.144 829.264 144.336C828.432 144.784 827.248 145.104 825.712 145.296C824.24 145.488 823.248 145.648 822.736 145.776C822.288 145.84 822.032 146 821.968 146.256C820.816 149.648 819.44 153.776 817.84 158.64C816.24 163.44 814.544 168.368 812.752 173.424ZM799.792 147.984C799.664 147.984 799.6 148.016 799.6 148.08C799.6 148.08 799.664 148.08 799.792 148.08V147.984ZM843.467 203.568C840.203 203.696 837.195 203.28 834.443 202.32C831.755 201.424 829.547 200.176 827.819 198.576C826.155 196.976 825.099 195.12 824.651 193.008C824.203 190.832 824.587 188.624 825.803 186.384C827.467 183.696 830.795 182.896 835.787 183.984C839.563 184.752 842.155 185.168 843.563 185.232C845.035 185.296 846.283 185.104 847.307 184.656C851.979 183.12 854.603 181.456 855.179 179.664C855.563 178.32 854.731 176.752 852.683 174.96C851.851 174.192 850.923 173.424 849.899 172.656C848.875 171.888 848.011 171.12 847.307 170.352C844.107 167.984 841.579 165.264 839.723 162.192C837.931 159.056 837.195 155.664 837.515 152.016C837.835 148.368 838.443 145.36 839.339 142.992C840.235 140.56 841.355 138.416 842.699 136.56C845.067 133.296 848.139 130.64 851.915 128.592C856.267 126.352 859.755 124.912 862.379 124.272C867.563 123.12 872.811 123.024 878.123 123.984C879.915 124.304 881.451 124.912 882.731 125.808C884.011 126.704 885.291 127.632 886.571 128.592C888.811 130.832 889.355 133.104 888.203 135.408C887.755 136.432 887.051 137.264 886.091 137.904C885.131 138.544 884.107 138.896 883.019 138.96C883.147 140.688 882.827 141.968 882.059 142.8C880.587 144.272 878.027 145.232 874.379 145.68C869.131 145.296 865.579 145.584 863.723 146.544C861.547 147.696 860.747 150.192 861.323 154.032C861.451 154.864 861.963 155.728 862.859 156.624C863.819 157.52 864.907 158.48 866.123 159.504C867.403 160.528 868.715 161.68 870.059 162.96C871.467 164.24 872.683 165.712 873.707 167.376C877.291 173.264 877.003 180.144 872.843 188.016C869.771 193.904 864.523 198.32 857.099 201.264C853.259 202.8 848.715 203.568 843.467 203.568ZM900.852 201.648C900.084 203.184 898.932 204.528 897.396 205.68C895.924 206.896 894.42 207.728 892.884 208.176C891.412 208.688 890.42 208.944 889.908 208.944C889.396 208.944 888.084 208.784 885.972 208.464H885.876C885.812 208.464 885.716 208.4 885.588 208.272C882.26 206.736 880.596 204.656 880.596 202.032C880.596 199.728 881.78 197.424 884.148 195.12C887.348 192.048 890.804 190.64 894.516 190.896C894.964 190.96 896.02 191.216 897.684 191.664C897.876 191.856 898.004 191.952 898.068 191.952C901.716 194.768 902.644 198 900.852 201.648Z" fill="#2A2621"/>
</svg>
